<svg width="34" height="34" viewBox="0 0 34 34" fill="none" xmlns="http://www.w3.org/2000/svg">
<path d="M13.3333 29.9998H18.6667C18.6667 31.4665 17.4667 32.6665 16 32.6665C14.5333 32.6665 13.3333 31.4665 13.3333 29.9998ZM28 27.3332V28.6665H4V27.3332L6.66667 24.6665V16.6665C6.66667 12.5332 9.33333 8.93317 13.3333 7.73317V7.33317C13.3333 5.8665 14.5333 4.6665 16 4.6665C17.4667 4.6665 18.6667 5.8665 18.6667 7.33317V7.73317C22.6667 8.93317 25.3333 12.5332 25.3333 16.6665V24.6665L28 27.3332ZM22.6667 16.6665C22.6667 12.9332 19.7333 9.99984 16 9.99984C12.2667 9.99984 9.33333 12.9332 9.33333 16.6665V25.9998H22.6667V16.6665Z" fill="white"/>
<circle cx="25" cy="9" r="9" fill="#FF8B13"/>
<path d="M21.42 13.11C21.04 13.11 20.6633 13.0433 20.29 12.91C19.9233 12.7767 19.6 12.5867 19.32 12.34L19.82 11.19C20.06 11.3967 20.3167 11.5533 20.59 11.66C20.87 11.7667 21.1533 11.82 21.44 11.82C22.54 11.82 23.09 11.1033 23.09 9.67V9.48C22.95 9.80667 22.7333 10.0633 22.44 10.25C22.1467 10.4367 21.8067 10.53 21.42 10.53C21.0267 10.53 20.6733 10.4333 20.36 10.24C20.0467 10.04 19.8 9.77 19.62 9.43C19.44 9.08333 19.35 8.69 19.35 8.25C19.35 7.78333 19.45 7.37 19.65 7.01C19.8567 6.64333 20.1367 6.35667 20.49 6.15C20.85 5.94333 21.2633 5.84 21.73 5.84C22.6367 5.84 23.3333 6.15 23.82 6.77C24.3067 7.38333 24.55 8.25333 24.55 9.38C24.55 10.1667 24.4233 10.8367 24.17 11.39C23.9233 11.9433 23.5667 12.37 23.1 12.67C22.6333 12.9633 22.0733 13.11 21.42 13.11ZM21.82 9.32C22.1267 9.32 22.3767 9.21667 22.57 9.01C22.7633 8.79667 22.86 8.52333 22.86 8.19C22.86 7.85 22.7633 7.57333 22.57 7.36C22.3767 7.14667 22.1267 7.04 21.82 7.04C21.5133 7.04 21.2633 7.14667 21.07 7.36C20.8767 7.57333 20.78 7.85 20.78 8.19C20.78 8.52333 20.8767 8.79667 21.07 9.01C21.2633 9.21667 21.5133 9.32 21.82 9.32ZM27.4561 12.6V10.65H25.5561V9.61H27.4561V7.72H28.5361V9.61H30.4361V10.65H28.5361V12.6H27.4561Z" fill="#F9F9F9"/>
</svg>
