<svg width="108" height="42" viewBox="0 0 108 42" fill="none" xmlns="http://www.w3.org/2000/svg">
<path d="M83.2184 13.6759C83.2121 13.6696 83.2058 13.6633 83.1927 13.657C83.1606 13.6314 83.1223 13.6062 83.0902 13.5868C83.0455 13.5611 83.0008 13.5359 82.9561 13.5103L82.9498 13.5039L81.5237 13.0447L64.054 8.02557L56.7449 5.9275L37.836 0.5L22.278 11.7949L19.3555 13.9186C19.6561 14.3841 19.8669 14.9073 19.9694 15.4809C21.0438 13.0001 23.5695 11.4122 26.6388 11.4122C30.0024 11.4122 32.394 13.332 32.6112 16.1189L33.5578 11.6927H38.9614L38.9424 11.7692C39.5117 11.5779 40.1189 11.4757 40.7391 11.4757C42.2099 11.4757 43.463 12.024 44.2751 13.0191C44.723 13.5737 44.9979 14.2243 45.0999 14.9325C45.5346 12.8345 47.7854 11.4248 50.8615 11.4248C54.3591 11.4248 56.7508 12.9745 57.2049 15.4872C58.273 13.0001 60.8051 11.4117 63.8743 11.4117C67.2505 11.4117 69.6548 13.3441 69.8467 16.1567L70.7929 11.6922H76.1834L75.3713 15.5313L75.3392 15.6718C78.6834 14.8236 81.3247 14.1541 82.6099 13.8286L83.2685 13.7138C83.2491 13.7011 83.2365 13.6881 83.2175 13.6755L83.2184 13.6759Z" fill="#FF8B13"/>
<path d="M67.4902 21.5715C67.9312 21.4247 68.3664 21.2716 68.7948 21.1253L69.1659 19.3717C68.7564 20.2388 68.1877 20.979 67.4906 21.5719L67.4902 21.5715ZM83.24 13.561L83.0929 13.5867L82.5814 13.6758C81.3025 14.0009 78.6869 14.6772 75.3748 15.5317L75.3428 15.6722L74.6395 18.9885C80.094 16.8522 83.7262 14.9644 83.547 14.0459C83.515 13.8739 83.4125 13.7078 83.24 13.561ZM70.7066 16.7432L70.6809 16.8707L69.8561 20.7548C71.1544 20.3019 72.4013 19.8494 73.5714 19.4028L74.3067 15.9396L74.3388 15.7991C73.1877 16.099 71.9729 16.4114 70.7066 16.7428V16.7432ZM57.2333 20.3532C56.9263 20.436 56.6194 20.5126 56.3187 20.5954C55.4682 22.209 53.3836 23.2355 50.6786 23.2355C49.6683 23.2355 48.7474 23.1014 47.9416 22.8402H47.9353C47.9159 22.8402 47.9032 22.8339 47.8843 22.8276H47.8779C45.8957 23.3823 44.3356 23.8416 43.4016 24.154C43.3249 24.1797 43.2544 24.1986 43.1908 24.2242C43.063 24.2625 42.9479 24.3008 42.8518 24.3391C42.8328 24.3454 42.8197 24.3517 42.8007 24.358C42.775 24.3643 42.7497 24.3773 42.724 24.3899C42.6983 24.3962 42.6793 24.4025 42.6599 24.4156C42.6152 24.4282 42.5832 24.4476 42.5511 24.4602C42.4807 24.4921 42.4486 24.5173 42.4423 24.5367C42.436 24.5304 42.4234 24.5241 42.3976 24.5173C42.3719 24.511 42.3335 24.511 42.2825 24.5047C40.2682 24.3454 19.9017 26.0355 8.14198 27.0368C7.83501 27.0625 7.53436 27.0877 7.24048 27.1134C5.23254 27.2853 3.51892 27.4321 2.25266 27.5406L0.264129 27.8851L0.123283 27.9107C0.0144895 28.1021 -0.0238818 28.2934 0.0144895 28.4654C0.193706 29.4158 3.18622 29.9962 7.69417 30.2447C7.97541 30.2636 8.26342 30.2767 8.5573 30.2893H8.56362C17.7592 30.6976 32.4793 29.8494 43.0621 28.0188C48.8747 27.0175 55.8258 25.2256 62.3096 23.2355C59.9374 23.1333 58.1019 22.0429 57.2324 20.3527L57.2333 20.3532Z" fill="#743B19"/>
<path d="M8.36226 26.164C8.77351 29.3661 8.29906 32.8909 6.86894 35.8066C6.17871 37.2302 5.21085 38.5606 4.06919 39.6677C3.84302 39.8726 3.49452 40.2062 3.25256 40.3917L3.2503 40.3935C3.02549 40.5754 2.69143 40.5178 2.54066 40.2715L0.968787 37.7056C0.82117 37.4648 0.914164 37.1482 1.17012 37.0267C1.25409 36.9866 1.33444 36.9465 1.40351 36.9074L1.75517 36.7192C1.91904 36.6237 2.10367 36.5044 2.26799 36.4054C3.73513 35.4432 4.92419 34.1074 5.81305 32.5919C6.34122 31.6937 6.76872 30.7397 7.1109 29.7505C7.46031 28.7276 7.73478 27.6574 7.8833 26.58C7.9149 26.3504 8.1045 26.1753 8.33653 26.1649L8.36226 26.1636V26.164Z" fill="#743B19"/>
<path d="M6.01762 24.7759C7.89782 26.8447 9.38979 29.3763 10.0583 32.1079C10.3942 33.5018 10.4886 34.9646 10.2741 36.3891C10.159 37.1734 9.95136 37.9388 9.6629 38.6789C9.55772 38.9482 9.2363 39.0598 8.9835 38.9185L6.83922 37.7159C6.59906 37.5813 6.52142 37.272 6.67174 37.0419C7.70416 35.4589 8.04905 33.5076 7.86035 31.5743C7.80889 31.0147 7.7186 30.4564 7.59581 29.9044C7.34527 28.7771 6.96201 27.6695 6.48576 26.6083C6.29977 26.1973 6.09888 25.7862 5.87904 25.3895C5.76618 25.1856 5.82035 24.9299 6.00408 24.7862L6.01762 24.7759Z" fill="#FF8B13"/>
<path d="M47.9336 22.8386C45.9257 23.3933 44.3398 23.8525 43.4 24.1524C43.3232 24.178 43.2528 24.1969 43.1887 24.2226C43.0605 24.2609 42.9454 24.2991 42.8497 24.3374C42.8307 24.3437 42.8176 24.35 42.7987 24.3568C42.7729 24.3631 42.7477 24.3757 42.7219 24.3887C42.6962 24.395 42.6768 24.4013 42.6578 24.4144C42.6131 24.427 42.5811 24.4464 42.549 24.459C42.4786 24.4909 42.4466 24.5166 42.4402 24.5355C42.4335 24.5292 42.4208 24.5229 42.3951 24.5166C42.3694 24.5103 42.331 24.5103 42.28 24.504C40.2657 24.3635 19.8797 26.1239 8.13313 27.1698C7.85144 27.1955 7.57652 27.2144 7.30837 27.24C5.28102 27.4188 3.55476 27.5782 2.27587 27.693L0.146484 28.0631C0.184856 28.0054 0.216907 27.9419 0.261598 27.8843C0.266113 27.8801 0.270476 27.8759 0.27469 27.8717C0.28101 27.8654 0.29365 27.8524 0.300421 27.8397C0.325701 27.8141 0.345112 27.7889 0.370844 27.7632V27.7569L1.54094 26.8447L8.61345 21.7108C9.72577 22.6864 11.3947 23.2353 13.441 23.2353C17.0028 23.2353 19.4901 21.4497 19.4901 18.8919C19.4901 18.8217 19.4901 18.7514 19.4838 18.688C19.8224 21.4114 22.182 23.2479 25.4562 23.2479C28.3593 23.2479 30.7189 21.8256 31.9021 19.4277L31.1473 22.9674H36.5762L38.0469 16.0541C38.3345 15.8565 38.6866 15.7354 39.0252 15.7354C39.3069 15.7354 39.524 15.7993 39.6071 15.901C39.6901 15.9969 39.7028 16.2198 39.6518 16.4751L38.2578 22.9674H43.6866L44.4477 19.4025C44.8441 21.048 46.072 22.247 47.8754 22.8274H47.8817C47.9007 22.8337 47.9138 22.84 47.9327 22.84L47.9336 22.8386Z" fill="#FF8B13"/>
<path d="M18.5408 18.8915C18.5408 21.1364 16.0151 22.2782 13.4446 22.2782C11.8267 22.2782 10.4007 21.8955 9.41611 21.1238C8.73716 20.5925 8.27039 19.8699 8.1011 18.9645C8.06273 18.7592 8.23427 18.5728 8.44374 18.5728H10.9451C11.1063 18.5728 11.2318 18.6921 11.2692 18.8488C11.332 19.1135 11.4507 19.3445 11.6091 19.5358C12.0249 20.0459 12.7409 20.3012 13.5083 20.3012C14.4161 20.3012 15.2219 20.0144 15.2219 19.4084C15.2219 18.8663 14.3141 18.643 13.176 18.4008C13.125 18.3882 13.0736 18.3819 13.0226 18.3688C11.1555 17.9987 8.75116 17.5463 8.75116 15.6837C8.75116 13.4897 11.104 12.3799 13.6302 12.3799C15.811 12.3799 17.7034 13.0624 18.5796 14.4779C18.7828 14.7958 18.9308 15.1542 19.0162 15.5522C19.0604 15.7593 18.8866 15.9511 18.674 15.9511H16.1938C16.0394 15.9511 15.914 15.8448 15.8634 15.6994C15.5587 14.8183 14.6883 14.3951 13.5923 14.3951C12.7865 14.3951 12.0448 14.6819 12.0448 15.1988C12.0448 15.7728 13.1381 15.9894 14.417 16.2383C14.8517 16.3275 15.3059 16.4171 15.7469 16.5319C17.2046 16.902 18.5413 17.5012 18.5413 18.8915H18.5408Z" fill="white"/>
<path d="M15.746 16.5334C15.305 16.4185 14.8508 16.3294 14.4161 16.2398C13.1372 15.9913 12.0439 15.7743 12.0439 15.2002C12.0439 14.6838 12.7856 14.3966 13.5914 14.3966C14.6874 14.3966 15.5578 14.8198 15.8629 15.7009C15.9135 15.8463 16.039 15.9526 16.1934 15.9526H18.6735C18.8861 15.9526 19.0599 15.7608 19.0157 15.5537C18.9304 15.1557 18.7823 14.7973 18.5796 14.4794C17.7034 13.0634 15.811 12.3813 13.6302 12.3813C11.1044 12.3813 8.75116 13.4912 8.75116 15.6851C8.75116 17.5473 11.1555 18.0002 13.0226 18.3703C13.0736 18.3829 13.125 18.3892 13.176 18.4023C14.3141 18.6445 15.2224 18.8678 15.2224 19.4099C15.2224 20.0159 14.4166 20.3027 13.5087 20.3027C12.7413 20.3027 12.0254 20.0474 11.6096 19.5373C11.4511 19.3459 11.3324 19.1154 11.2697 18.8502C11.2327 18.6936 11.1072 18.5742 10.9455 18.5742H8.44374C8.23427 18.5742 8.06273 18.7606 8.1011 18.9659C8.27039 19.8713 8.73762 20.594 9.41611 21.1252C10.4007 21.8969 11.8267 22.2796 13.4446 22.2796C16.0151 22.2796 18.5413 21.1378 18.5413 18.893C18.5413 17.5027 17.205 16.903 15.7469 16.5334H15.746Z" fill="white"/>
<path d="M31.2455 17.7322C31.4125 17.7322 31.5583 17.6129 31.5859 17.4485C31.6378 17.1406 31.668 16.8506 31.668 16.5265C31.668 13.9944 29.596 12.3682 26.6418 12.3682C23.5279 12.3682 21.0721 14.1601 20.5029 16.9794C20.4324 17.3301 20.4004 17.6809 20.4004 17.9996C20.4004 20.57 22.421 22.2917 25.4586 22.2917C27.9753 22.2917 30.0077 21.1211 31.0432 19.0095C31.1574 18.7767 30.9949 18.5034 30.7349 18.5034H28.2128C28.0841 18.5034 27.9695 18.5804 27.9094 18.6934C27.4002 19.6506 26.626 20.0788 25.6825 20.0788C24.4357 20.0788 23.6809 19.3773 23.6809 18.1018C23.6809 17.987 23.6809 17.8533 23.6936 17.7317H31.245L31.2455 17.7322ZM26.4694 14.5117C27.4273 14.5117 28.2047 14.9876 28.4344 15.7588C28.4985 15.974 28.3216 16.1893 28.0963 16.1893H24.7079C24.4316 16.1893 24.2619 15.8754 24.4172 15.6481C24.9368 14.8881 25.6789 14.5117 26.4689 14.5117H26.4694Z" fill="white"/>
<path d="M31.2455 17.7322C31.4125 17.7322 31.5583 17.6129 31.5859 17.4485C31.6378 17.1406 31.668 16.8506 31.668 16.5265C31.668 13.9944 29.596 12.3682 26.6418 12.3682C23.5279 12.3682 21.0721 14.1601 20.5029 16.9794C20.4324 17.3301 20.4004 17.6809 20.4004 17.9996C20.4004 20.57 22.421 22.2917 25.4586 22.2917C27.9753 22.2917 30.0077 21.1211 31.0432 19.0095C31.1574 18.7767 30.9949 18.5034 30.7349 18.5034H28.2128C28.0841 18.5034 27.9695 18.5804 27.9094 18.6934C27.4002 19.6506 26.626 20.0788 25.6825 20.0788C24.4357 20.0788 23.6809 19.3773 23.6809 18.1018C23.6809 17.987 23.6809 17.8533 23.6936 17.7317H31.245L31.2455 17.7322ZM26.4694 14.5117C27.4273 14.5117 28.2047 14.9876 28.4344 15.7588C28.4985 15.974 28.3216 16.1893 28.0963 16.1893H24.7079C24.4316 16.1893 24.2619 15.8754 24.4172 15.6481C24.9368 14.8881 25.6789 14.5117 26.4689 14.5117H26.4694Z" fill="white"/>
<path d="M44.107 16.3913L42.9753 21.7364C42.9415 21.8958 42.8006 22.0102 42.6372 22.0102H39.8794C39.6591 22.0102 39.4953 21.808 39.5413 21.5933L40.5963 16.6786C40.8265 15.5179 40.2383 14.7782 39.0294 14.7782C38.3672 14.7782 37.7275 15.0496 37.2657 15.4594C37.2097 15.5089 37.1731 15.5769 37.1578 15.6498L35.8586 21.7373C35.8247 21.8967 35.6834 22.0102 35.5204 22.0102H32.7676C32.5478 22.0102 32.3839 21.808 32.4295 21.5937L34.2777 12.921C34.3115 12.7616 34.4528 12.6477 34.6158 12.6477H37.3627C37.5826 12.6477 37.7464 12.8494 37.7008 13.0637L37.565 13.7062C38.4222 12.9025 39.5156 12.4307 40.743 12.4307C43.1342 12.4307 44.5797 14.178 44.1066 16.3913H44.107Z" fill="white"/>
<path d="M40.743 12.4326C39.5151 12.4326 38.4218 12.9044 37.565 13.7081L37.7008 13.0652C37.746 12.8508 37.5821 12.6491 37.3627 12.6491H34.6158C34.4524 12.6491 34.3115 12.763 34.2777 12.9224L32.4295 21.5952C32.3839 21.8095 32.5478 22.0116 32.7676 22.0116H35.5204C35.6839 22.0116 35.8247 21.8977 35.8586 21.7388L37.1573 15.6513C37.1731 15.5783 37.2092 15.5103 37.2652 15.4608C37.7275 15.0511 38.3671 14.7796 39.0294 14.7796C40.2379 14.7796 40.8261 15.5193 40.5958 16.68L39.5409 21.5947C39.4948 21.8095 39.6587 22.0116 39.879 22.0116H42.6367C42.8002 22.0116 42.9415 21.8977 42.9749 21.7379L44.1066 16.3928C44.5797 14.1799 43.1347 12.4321 40.743 12.4321V12.4326Z" fill="white"/>
<path d="M55.778 18.8915C55.778 19.7141 55.439 20.3903 54.8824 20.913C54.8503 20.945 54.8187 20.9707 54.7867 21.0022C53.8148 21.8504 52.261 22.2777 50.6814 22.2777C50.4769 22.2777 50.272 22.2714 50.0738 22.2583C50.0354 22.2583 50.0034 22.252 49.965 22.2457H49.9587C47.5702 22.0719 45.7144 20.9833 45.3374 18.9649C45.299 18.7591 45.471 18.5723 45.681 18.5723H48.1814C48.343 18.5723 48.4694 18.6916 48.5064 18.8487C48.7362 19.8181 49.6847 20.3007 50.7514 20.3007C51.6592 20.3007 52.4655 20.0139 52.4655 19.4079C52.4655 18.8402 51.4741 18.6236 50.2593 18.3683C48.3922 17.9982 45.9875 17.5458 45.9875 15.6832C45.9875 13.4892 48.3475 12.3794 50.867 12.3794C53.5295 12.3794 55.7645 13.4001 56.2434 15.5152C56.2936 15.7363 56.1351 15.9506 55.9076 15.9506H53.4306C53.2762 15.9506 53.1507 15.8444 53.1002 15.6989C52.795 14.8178 51.9251 14.3946 50.8349 14.3946C50.0232 14.3946 49.2874 14.6814 49.2874 15.1983C49.2874 15.7723 50.3808 15.9889 51.6597 16.2379C53.5078 16.6079 55.778 17.0798 55.778 18.891V18.8915Z" fill="white"/>
<path d="M63.8781 12.3687C60.7642 12.3687 58.3084 14.1606 57.7392 16.9799C57.6751 17.3306 57.6367 17.6814 57.6367 18.0001C57.6367 18.7655 57.8159 19.4544 58.1482 20.041C58.1545 20.0667 58.1676 20.0856 58.1802 20.1049C58.9729 21.4633 60.5909 22.2926 62.7013 22.2926C65.2126 22.2926 67.2494 21.122 68.2805 19.01C68.3942 18.7772 68.2317 18.5044 67.9721 18.5044H65.4487C65.32 18.5044 65.2053 18.5814 65.1453 18.6948C64.637 19.6516 63.8682 20.0797 62.9184 20.0797C62.151 20.0797 61.5691 19.8118 61.2301 19.308C61.2174 19.2891 61.2043 19.2635 61.1854 19.2378C61.0129 18.9379 60.9168 18.5552 60.9168 18.1028C60.9168 17.988 60.9168 17.8542 60.9362 17.7327H68.7694C68.7951 17.5985 68.8204 17.4711 68.8398 17.3437C68.8461 17.3054 68.8524 17.2671 68.8524 17.2289C68.8845 16.9993 68.9034 16.7696 68.9034 16.5274C68.9034 13.9953 66.8382 12.3691 63.8772 12.3691L63.8781 12.3687ZM61.9451 16.1888C61.6689 16.1888 61.4987 15.8746 61.6549 15.6472C62.1758 14.8877 62.9225 14.5113 63.712 14.5113C64.6695 14.5113 65.4419 14.9867 65.6748 15.7571C65.7398 15.9727 65.5629 16.1884 65.3372 16.1884H61.9451V16.1888Z" fill="white"/>
<path d="M63.8781 12.3687C60.7642 12.3687 58.3084 14.1606 57.7392 16.9799C57.6751 17.3306 57.6367 17.6814 57.6367 18.0001C57.6367 18.7655 57.8159 19.4544 58.1482 20.041C58.1545 20.0667 58.1676 20.0856 58.1802 20.1049C58.9729 21.4633 60.5909 22.2926 62.7013 22.2926C65.2126 22.2926 67.2494 21.122 68.2805 19.01C68.3942 18.7772 68.2317 18.5044 67.9721 18.5044H65.4487C65.32 18.5044 65.2053 18.5814 65.1453 18.6948C64.637 19.6516 63.8682 20.0797 62.9184 20.0797C62.151 20.0797 61.5691 19.8118 61.2301 19.308C61.2174 19.2891 61.2043 19.2635 61.1854 19.2378C61.0129 18.9379 60.9168 18.5552 60.9168 18.1028C60.9168 17.988 60.9168 17.8542 60.9362 17.7327H68.7694C68.7951 17.5985 68.8204 17.4711 68.8398 17.3437C68.8461 17.3054 68.8524 17.2671 68.8524 17.2289C68.8845 16.9993 68.9034 16.7696 68.9034 16.5274C68.9034 13.9953 66.8382 12.3691 63.8772 12.3691L63.8781 12.3687ZM61.9451 16.1888C61.6689 16.1888 61.4987 15.8746 61.6549 15.6472C62.1758 14.8877 62.9225 14.5113 63.712 14.5113C64.6695 14.5113 65.4419 14.9867 65.6748 15.7571C65.7398 15.9727 65.5629 16.1884 65.3372 16.1884H61.9451V16.1888Z" fill="white"/>
<path d="M74.5769 12.6494C74.7963 12.6494 74.9606 12.8511 74.915 13.0654L74.3376 15.8001L74.3056 15.9406L73.5702 19.4037L73.0782 21.7382C73.0443 21.8976 72.9034 22.0119 72.74 22.0119H70.0139C69.794 22.0119 69.6297 21.8098 69.6757 21.595L69.8554 20.7553L70.6802 16.8712L70.7059 16.7438L71.5176 12.9227C71.5514 12.7633 71.6923 12.6494 71.8557 12.6494H74.5769Z" fill="white"/>
<path d="M74.5769 12.6494C74.7963 12.6494 74.9606 12.8511 74.915 13.0654L74.3376 15.8001L74.3056 15.9406L73.5702 19.4037L73.0782 21.7382C73.0443 21.8976 72.9034 22.0119 72.74 22.0119H70.0139C69.794 22.0119 69.6297 21.8098 69.6757 21.595L69.8554 20.7553L70.6802 16.8712L70.7059 16.7438L71.5176 12.9227C71.5514 12.7633 71.6923 12.6494 71.8557 12.6494H74.5769Z" fill="white"/>
<path d="M16.155 32.86H16.811V37.94H19.635V38.5H16.155V32.86ZM20.4753 32.86H21.1313V38.5H20.4753V32.86ZM22.5222 32.86H26.0102V33.412H23.1702V35.356H25.8502V35.908H23.1702V38.5H22.5222V32.86ZM26.9753 32.86H30.5433V33.404H27.6233V35.364H30.3833V35.908H27.6233V37.956H30.5433V38.5H26.9753V32.86ZM31.5037 36.1H33.7437V36.636H31.5037V36.1ZM36.6579 38.564C35.7779 38.564 35.0739 38.3267 34.5459 37.852L34.8019 37.348C35.0793 37.5827 35.3619 37.7507 35.6499 37.852C35.9433 37.9533 36.2819 38.004 36.6659 38.004C37.1193 38.004 37.4686 37.916 37.7139 37.74C37.9593 37.564 38.0819 37.316 38.0819 36.996C38.0819 36.8093 38.0233 36.6573 37.9059 36.54C37.7886 36.4227 37.6339 36.3293 37.4419 36.26C37.2499 36.1907 36.9913 36.1187 36.6659 36.044C36.2286 35.9427 35.8686 35.836 35.5859 35.724C35.3086 35.612 35.0819 35.452 34.9059 35.244C34.7353 35.036 34.6499 34.764 34.6499 34.428C34.6499 34.108 34.7326 33.8253 34.8979 33.58C35.0686 33.3293 35.3086 33.1373 35.6179 33.004C35.9326 32.8653 36.2953 32.796 36.7059 32.796C37.0953 32.796 37.4579 32.8573 37.7939 32.98C38.1353 33.1027 38.4233 33.2787 38.6579 33.508L38.4099 34.012C38.1433 33.7827 37.8713 33.6173 37.5939 33.516C37.3219 33.4093 37.0259 33.356 36.7059 33.356C36.2686 33.356 35.9246 33.4493 35.6739 33.636C35.4286 33.8173 35.3059 34.0733 35.3059 34.404C35.3059 34.6867 35.4153 34.9 35.6339 35.044C35.8526 35.188 36.1833 35.3107 36.6259 35.412C37.1113 35.5293 37.4926 35.6387 37.7699 35.74C38.0473 35.836 38.2766 35.9827 38.4579 36.18C38.6446 36.3773 38.7379 36.6413 38.7379 36.972C38.7379 37.292 38.6526 37.572 38.4819 37.812C38.3166 38.052 38.0766 38.2387 37.7619 38.372C37.4473 38.5 37.0793 38.564 36.6579 38.564ZM43.3634 38.5L40.4594 35.82V38.5H39.8034V32.86H40.4594V35.452L43.2274 32.86H44.0594L41.1154 35.604L44.2114 38.5H43.3634ZM44.8269 32.86H45.4829V38.5H44.8269V32.86ZM46.8737 32.86H47.5297V37.94H50.3537V38.5H46.8737V32.86ZM51.194 32.86H51.85V37.94H54.674V38.5H51.194V32.86ZM57.1735 38.564C56.2935 38.564 55.5895 38.3267 55.0615 37.852L55.3175 37.348C55.5949 37.5827 55.8775 37.7507 56.1655 37.852C56.4589 37.9533 56.7975 38.004 57.1815 38.004C57.6349 38.004 57.9842 37.916 58.2295 37.74C58.4749 37.564 58.5975 37.316 58.5975 36.996C58.5975 36.8093 58.5389 36.6573 58.4215 36.54C58.3042 36.4227 58.1495 36.3293 57.9575 36.26C57.7655 36.1907 57.5069 36.1187 57.1815 36.044C56.7442 35.9427 56.3842 35.836 56.1015 35.724C55.8242 35.612 55.5975 35.452 55.4215 35.244C55.2509 35.036 55.1655 34.764 55.1655 34.428C55.1655 34.108 55.2482 33.8253 55.4135 33.58C55.5842 33.3293 55.8242 33.1373 56.1335 33.004C56.4482 32.8653 56.8109 32.796 57.2215 32.796C57.6109 32.796 57.9735 32.8573 58.3095 32.98C58.6509 33.1027 58.9389 33.2787 59.1735 33.508L58.9255 34.012C58.6589 33.7827 58.3869 33.6173 58.1095 33.516C57.8375 33.4093 57.5415 33.356 57.2215 33.356C56.7842 33.356 56.4402 33.4493 56.1895 33.636C55.9442 33.8173 55.8215 34.0733 55.8215 34.404C55.8215 34.6867 55.9309 34.9 56.1495 35.044C56.3682 35.188 56.6989 35.3107 57.1415 35.412C57.6269 35.5293 58.0082 35.6387 58.2855 35.74C58.5629 35.836 58.7922 35.9827 58.9735 36.18C59.1602 36.3773 59.2535 36.6413 59.2535 36.972C59.2535 37.292 59.1682 37.572 58.9975 37.812C58.8322 38.052 58.5922 38.2387 58.2775 38.372C57.9629 38.5 57.5949 38.564 57.1735 38.564ZM62.3815 32.86H65.9495V33.404H63.0295V35.364H65.7895V35.908H63.0295V37.956H65.9495V38.5H62.3815V32.86ZM67.0378 32.86H68.9338C69.8351 32.86 70.5311 33.1053 71.0218 33.596C71.5178 34.0813 71.7658 34.7747 71.7658 35.676C71.7658 36.5773 71.5178 37.2733 71.0218 37.764C70.5311 38.2547 69.8351 38.5 68.9338 38.5H67.0378V32.86ZM68.8938 37.94C70.3551 37.94 71.0858 37.1853 71.0858 35.676C71.0858 34.172 70.3551 33.42 68.8938 33.42H67.6938V37.94H68.8938ZM75.1519 38.564C74.4159 38.564 73.8585 38.372 73.4799 37.988C73.1012 37.604 72.9119 37.0387 72.9119 36.292V32.86H73.5599V36.348C73.5599 36.8973 73.6932 37.3107 73.9599 37.588C74.2319 37.8653 74.6292 38.004 75.1519 38.004C75.6745 38.004 76.0692 37.8653 76.3359 37.588C76.6025 37.3107 76.7359 36.8973 76.7359 36.348V32.86H77.3919V36.292C77.3919 37.0333 77.1999 37.5987 76.8159 37.988C76.4372 38.372 75.8825 38.564 75.1519 38.564ZM81.1489 38.564C80.6156 38.564 80.1516 38.4493 79.7569 38.22C79.3623 37.9853 79.0583 37.652 78.8449 37.22C78.6369 36.7827 78.5329 36.268 78.5329 35.676C78.5329 35.084 78.6369 34.572 78.8449 34.14C79.0583 33.708 79.3623 33.3773 79.7569 33.148C80.1516 32.9133 80.6156 32.796 81.1489 32.796C81.5383 32.796 81.8956 32.8573 82.2209 32.98C82.5463 33.0973 82.8289 33.2733 83.0689 33.508L82.8209 34.012C82.5489 33.7827 82.2823 33.6173 82.0209 33.516C81.7596 33.4147 81.4716 33.364 81.1569 33.364C80.5383 33.364 80.0583 33.5667 79.7169 33.972C79.3809 34.372 79.2129 34.94 79.2129 35.676C79.2129 36.4173 79.3809 36.9907 79.7169 37.396C80.0583 37.796 80.5383 37.996 81.1569 37.996C81.4716 37.996 81.7596 37.9453 82.0209 37.844C82.2823 37.7427 82.5489 37.5773 82.8209 37.348L83.0689 37.852C82.8289 38.0867 82.5463 38.2653 82.2209 38.388C81.8956 38.5053 81.5383 38.564 81.1489 38.564ZM87.7102 37.052H84.7662L84.1422 38.5H83.4702L85.9502 32.86H86.5182L88.9982 38.5H88.3342L87.7102 37.052ZM87.4782 36.508L86.2382 33.62L84.9982 36.508H87.4782ZM90.5306 33.42H88.5706V32.86H93.1626V33.42H91.1946V38.5H90.5306V33.42ZM93.9519 32.86H94.6079V38.5H93.9519V32.86ZM98.3587 38.564C97.8361 38.564 97.3801 38.4467 96.9907 38.212C96.6067 37.9773 96.3107 37.644 96.1027 37.212C95.8947 36.78 95.7907 36.2707 95.7907 35.684C95.7907 35.092 95.8921 34.58 96.0947 34.148C96.3027 33.7107 96.5987 33.3773 96.9827 33.148C97.3721 32.9133 97.8307 32.796 98.3587 32.796C98.8867 32.796 99.3427 32.9133 99.7267 33.148C100.116 33.3773 100.412 33.7107 100.615 34.148C100.823 34.58 100.927 35.0893 100.927 35.676C100.927 36.2627 100.823 36.7747 100.615 37.212C100.407 37.644 100.108 37.9773 99.7187 38.212C99.3347 38.4467 98.8814 38.564 98.3587 38.564ZM98.3587 38.004C98.9561 38.004 99.4201 37.804 99.7507 37.404C100.087 36.9987 100.255 36.4227 100.255 35.676C100.255 34.9293 100.089 34.356 99.7587 33.956C99.4281 33.556 98.9614 33.356 98.3587 33.356C97.7614 33.356 97.2947 33.5587 96.9587 33.964C96.6281 34.364 96.4627 34.9347 96.4627 35.676C96.4627 36.4173 96.6281 36.9907 96.9587 37.396C97.2947 37.8013 97.7614 38.004 98.3587 38.004ZM106.628 32.86V38.5H106.124L102.724 33.964V38.5H102.108V32.86H102.612L106.012 37.396V32.86H106.628Z" fill="white"/>
</svg>
