<svg width="363" height="238" viewBox="0 0 363 238" fill="none" xmlns="http://www.w3.org/2000/svg">
<path d="M356.656 56.0668L350.98 83.5545L347.327 79.9903L341.112 84.4263L336.362 78.5255L325.711 86.2707L316.607 71.0472L306.454 76.9954L302.428 71.4445L289.535 78.7093L285.656 70.4008L294.694 26.6279L343.146 36.6326L356.656 56.0668Z" fill="#EBEBEB"/>
<path d="M343.147 36.6323L356.657 56.0665L339.85 52.5972L343.147 36.6323Z" fill="#DBDBDB"/>
<path d="M349.771 89.0463L341.45 129.374L276.186 115.899L284.447 75.8984L288.325 84.2011L301.224 76.9363L305.245 82.4872L315.404 76.5449L324.501 91.7684L335.158 84.0232L339.903 89.9181L346.124 85.488L349.771 89.0463Z" fill="#EBEBEB"/>
<path d="M256.36 84.3195L189.849 88.4352L184.565 3.06012L233.954 0L252.084 15.2117L256.36 84.3195Z" fill="#EBEBEB"/>
<path d="M233.955 0L252.085 15.2117L234.957 16.2732L233.955 0Z" fill="#DBDBDB"/>
<path d="M215.54 57.4485L215.28 55.5211C214.609 51.5299 215.701 47.0642 219.17 42.397C222.301 38.2456 223.997 35.2804 223.808 31.9119C223.594 28.1164 221.074 25.7205 216.383 25.9102C213.702 26.0495 211.127 27.0009 208.999 28.6383L206.953 24.054C209.325 22.1266 213.477 20.7033 217.42 20.4957C225.978 20.0213 230.141 25.0859 230.467 30.7376C230.752 35.7963 228.131 39.5978 224.798 44.0397C221.738 48.0902 220.736 51.4291 221.168 55.2068L221.352 57.1401L215.54 57.4485ZM214.485 67.9514C214.331 65.1996 216.08 63.1595 218.684 63.0172C221.287 62.8749 223.185 64.7015 223.339 67.4591C223.481 70.0626 221.886 72.162 219.134 72.3162C216.507 72.4645 214.609 70.5548 214.461 67.9514H214.485Z" fill="#DBDBDB"/>
<path d="M49.1789 42.9245L42.4894 39.894L41.5583 41.9401C41.4208 42.2324 41.2063 42.4819 40.9378 42.6616C40.6693 42.8413 40.3569 42.9445 40.0341 42.9601C39.6665 42.9721 39.3001 43.0078 38.937 43.0668C38.6183 43.1142 38.2928 43.0741 37.9951 42.9508C37.6974 42.8276 37.4388 42.6258 37.2468 42.367L35.9362 40.5345L29.9642 44.8163L31.2748 46.6489C31.4571 46.9133 31.5644 47.2223 31.5853 47.5428C31.6062 47.8634 31.5399 48.1836 31.3934 48.4695C31.2244 48.7956 31.0719 49.1302 30.9368 49.4718C30.8193 49.773 30.622 50.0365 30.366 50.234C30.11 50.4314 29.805 50.5554 29.4838 50.5926L27.248 50.812L27.9656 58.1243L30.2133 57.899C30.5356 57.8732 30.8589 57.9358 31.1483 58.08C31.4378 58.2242 31.6824 58.4445 31.856 58.7174C31.9509 58.8716 32.0517 59.0198 32.1585 59.1681C32.2652 59.3163 32.372 59.4587 32.4847 59.601C32.6893 59.85 32.8209 60.1509 32.8649 60.4702C32.9089 60.7895 32.8635 61.1147 32.7337 61.4098L31.7967 63.4736L38.4922 66.51L39.4233 64.4521C39.5621 64.16 39.7779 63.9112 40.0475 63.7325C40.317 63.5538 40.6302 63.452 40.9534 63.438C41.3169 63.423 41.6792 63.3874 42.0386 63.3313C42.3573 63.284 42.6829 63.3241 42.9806 63.4473C43.2782 63.5706 43.5369 63.7723 43.7288 64.0311L45.0395 65.8636L51.0174 61.5818L49.7067 59.7493C49.5188 59.4872 49.4081 59.1777 49.3872 58.8559C49.3662 58.5341 49.4358 58.2129 49.5881 57.9286C49.7533 57.6043 49.9018 57.2718 50.0329 56.9323C50.147 56.6289 50.3434 56.3632 50.6 56.1653C50.8567 55.9673 51.1634 55.8447 51.4859 55.8114L53.7335 55.5861L53.01 48.2738L50.7624 48.4932C50.442 48.5214 50.1202 48.4604 49.8324 48.317C49.5445 48.1736 49.302 47.9534 49.1315 47.6808C49.0307 47.5266 48.9299 47.3783 48.8231 47.23C48.7164 47.0818 48.6096 46.9335 48.4969 46.7971C48.2937 46.545 48.163 46.2423 48.1191 45.9214C48.0752 45.6006 48.1198 45.2739 48.2479 44.9765L49.1789 42.9245ZM45.3834 49.6912C46.0769 50.659 46.4679 51.8107 46.5068 53.0006C46.5457 54.1906 46.2309 55.3654 45.6021 56.3764C44.9733 57.3875 44.0588 58.1893 42.9742 58.6805C41.8897 59.1718 40.6838 59.3304 39.5092 59.1363C38.3345 58.9422 37.2437 58.404 36.3749 57.59C35.5061 56.7759 34.8982 55.7225 34.6281 54.5629C34.358 53.4034 34.4378 52.1897 34.8575 51.0755C35.2772 49.9614 36.0179 48.9967 36.9859 48.3034C38.2836 47.3741 39.8972 46.9983 41.472 47.2585C43.0468 47.5188 44.4537 48.3938 45.3834 49.6912Z" fill="#EBEBEB"/>
<path d="M351.574 139.947L347.114 142.521L347.903 143.885C348.021 144.081 348.08 144.306 348.072 144.535C348.065 144.763 347.992 144.984 347.862 145.172C347.725 145.386 347.595 145.605 347.476 145.836C347.379 146.041 347.225 146.213 347.032 146.333C346.84 146.453 346.617 146.515 346.391 146.512H344.825V151.666H346.403C346.629 151.663 346.852 151.725 347.044 151.845C347.237 151.965 347.391 152.137 347.488 152.342C347.607 152.573 347.737 152.793 347.873 153.006C348.004 153.194 348.077 153.415 348.084 153.644C348.091 153.872 348.033 154.097 347.915 154.293L347.126 155.657L351.586 158.231L352.381 156.861C352.496 156.667 352.663 156.508 352.863 156.404C353.063 156.299 353.288 156.252 353.513 156.268H354.272C354.498 156.253 354.723 156.3 354.923 156.404C355.123 156.509 355.29 156.667 355.405 156.861L356.2 158.237L360.654 155.663L359.865 154.293C359.753 154.096 359.698 153.872 359.706 153.646C359.714 153.419 359.786 153.2 359.912 153.012C360.049 152.799 360.179 152.573 360.298 152.348C360.395 152.143 360.549 151.971 360.742 151.851C360.934 151.731 361.156 151.669 361.383 151.672H362.961V146.518H361.371C361.145 146.521 360.922 146.459 360.73 146.339C360.537 146.219 360.383 146.047 360.286 145.842C360.167 145.617 360.037 145.391 359.9 145.178C359.774 144.99 359.703 144.771 359.694 144.544C359.686 144.318 359.741 144.094 359.853 143.897L360.642 142.527L356.188 139.953L355.393 141.305C355.278 141.5 355.111 141.658 354.911 141.763C354.711 141.868 354.486 141.915 354.261 141.898H353.881H353.501C353.276 141.914 353.05 141.866 352.849 141.762C352.648 141.657 352.48 141.499 352.363 141.305L351.574 139.947ZM353.881 144.87C354.717 144.868 355.534 145.115 356.229 145.579C356.924 146.042 357.467 146.702 357.787 147.473C358.107 148.245 358.191 149.095 358.029 149.914C357.866 150.734 357.464 151.487 356.873 152.078C356.282 152.669 355.529 153.071 354.709 153.234C353.89 153.396 353.04 153.312 352.268 152.992C351.497 152.672 350.837 152.13 350.374 151.434C349.91 150.739 349.663 149.922 349.664 149.086C349.664 148.532 349.772 147.983 349.984 147.471C350.195 146.958 350.506 146.493 350.897 146.101C351.289 145.709 351.754 145.397 352.266 145.185C352.778 144.973 353.327 144.864 353.881 144.864V144.87Z" fill="#EBEBEB"/>
<path d="M62.712 21.0116L58.6259 24.1429L59.5688 25.3943C59.7095 25.5726 59.796 25.7875 59.8181 26.0135C59.8401 26.2395 59.7969 26.4672 59.6934 26.6693C59.5799 26.9002 59.4809 27.1378 59.3969 27.381C59.3238 27.5952 59.1923 27.7847 59.0174 27.9282C58.8424 28.0718 58.6308 28.1636 58.4065 28.1934L56.8408 28.3951L57.505 33.5012L59.0707 33.2996C59.2986 33.2678 59.5308 33.3011 59.7407 33.3955C59.9505 33.4899 60.1294 33.6417 60.2568 33.8333C60.3996 34.0396 60.554 34.2376 60.7194 34.4264C60.8721 34.5944 60.9735 34.8027 61.0113 35.0267C61.0492 35.2506 61.0219 35.4807 60.9329 35.6896L60.3398 37.1485L65.0842 39.1233L65.6772 37.6644C65.7655 37.4551 65.9106 37.2747 66.0961 37.1437C66.2817 37.0127 66.5002 36.9363 66.7269 36.9231L67.1065 36.8816L67.4801 36.8223C67.6996 36.7809 67.9262 36.8005 68.1353 36.8789C68.3444 36.9574 68.528 37.0916 68.6662 37.2671L69.6329 38.5303L73.719 35.399L72.7641 34.1476C72.6262 33.9669 72.5415 33.7512 72.5195 33.5249C72.4975 33.2986 72.5391 33.0706 72.6396 32.8667C72.752 32.6374 72.851 32.4017 72.9361 32.1609C73.0092 31.9467 73.1407 31.7572 73.3156 31.6137C73.4906 31.4701 73.7022 31.3783 73.9265 31.3485L75.4922 31.1468L74.8279 26.0407L73.2623 26.2423C73.035 26.2747 72.8031 26.2424 72.5933 26.149C72.3836 26.0556 72.2043 25.9051 72.0762 25.7145C71.9279 25.501 71.7738 25.2994 71.6077 25.1215C71.4696 24.9498 71.3801 24.7442 71.3488 24.5261C71.3175 24.308 71.3455 24.0855 71.4298 23.882L72.0228 22.4231L67.2785 20.4482L66.6854 21.9071C66.596 22.1156 66.4506 22.2953 66.2653 22.4261C66.08 22.557 65.8621 22.6339 65.6357 22.6484L65.2562 22.684L64.9063 22.6959C64.6868 22.7373 64.4602 22.7177 64.2511 22.6392C64.042 22.5608 63.8583 22.4266 63.7202 22.2511L62.712 21.0116ZM65.6357 25.5959C66.4618 25.4897 67.3009 25.6305 68.047 26.0007C68.7932 26.3708 69.413 26.9536 69.8283 27.6755C70.2436 28.3975 70.4358 29.2263 70.3806 30.0574C70.3254 30.8885 70.0254 31.6846 69.5183 32.3453C69.0112 33.006 68.3197 33.5018 67.5312 33.77C66.7427 34.0382 65.8924 34.0669 65.0876 33.8524C64.2827 33.638 63.5595 33.1899 63.009 32.5649C62.4585 31.9398 62.1055 31.1657 61.9944 30.3403C61.9203 29.7894 61.9558 29.2293 62.0989 28.6923C62.2421 28.1552 62.49 27.6517 62.8284 27.2108C63.1668 26.7699 63.589 26.4002 64.0708 26.1231C64.5526 25.8459 65.0844 25.6668 65.6357 25.5959Z" fill="#EBEBEB"/>
<path d="M32.1819 154.815C32.4046 149.082 32.3255 143.341 31.9446 137.616C31.0961 125.795 29.2933 114.062 26.5538 102.532C25.0475 96.0438 23.1972 89.6626 21.2639 83.2873C21.2046 83.0916 20.8962 83.145 20.9495 83.3467C26.9215 105.823 31.8201 129.011 31.4821 152.377C31.3872 158.901 30.6281 165.335 30.0113 171.835C30.0113 172.007 30.2782 172.078 30.3197 171.9C31.5473 166.32 31.9506 160.496 32.1819 154.815Z" fill="#EBEBEB"/>
<path d="M20.9504 83.3291C20.9504 83.3291 11.9123 106.28 13.9346 111.653C15.9569 117.026 20.132 118.177 20.132 118.177C20.132 118.177 14.5988 126.076 18.4655 133.483C22.3322 140.89 30.9195 140.54 31.5126 148.938C31.4948 148.979 31.9692 113.865 20.9504 83.3291Z" fill="#EBEBEB"/>
<path d="M30.5094 134.479C30.524 134.441 30.524 134.399 30.5094 134.361C29.3232 118.692 26.3831 103.205 21.7442 88.1919C21.7442 88.1504 21.6552 88.1623 21.6671 88.1919C23.4581 94.9131 25.0396 101.662 26.4115 108.439C25.1964 107.287 23.712 106.46 22.0941 106.031C22.0941 106.031 22.0467 106.066 22.0941 106.078C23.7937 106.701 25.3219 107.717 26.5538 109.043C26.8148 110.378 27.0757 111.706 27.3189 113.041C25.2966 110.781 22.4974 109.66 19.6923 108.593C19.6859 108.596 19.6805 108.6 19.6767 108.606C19.6729 108.612 19.6709 108.618 19.6709 108.625C19.6709 108.632 19.6729 108.639 19.6767 108.645C19.6805 108.651 19.6859 108.655 19.6923 108.658C22.616 109.844 25.5219 111.374 27.5027 113.895C28.1906 117.702 28.7955 121.523 29.3174 125.358C27.8572 123.828 25.9846 122.755 23.9266 122.268C23.8614 122.268 23.8258 122.346 23.891 122.363C26.0051 122.986 27.8925 124.21 29.3234 125.886H29.3589C29.5368 127.23 29.7069 128.58 29.869 129.937C28.7394 128.981 27.464 128.212 26.0912 127.659C26.0557 127.659 26.0319 127.701 26.0912 127.713C27.4921 128.319 28.775 129.169 29.8808 130.221C29.8808 130.221 29.9105 130.221 29.9283 130.221C30.0765 131.508 30.2248 132.795 30.3553 134.082C28.3188 131.62 25.6759 129.731 22.6871 128.602C22.6746 128.602 22.6625 128.607 22.6536 128.616C22.6447 128.625 22.6397 128.637 22.6397 128.65C22.6397 128.662 22.6447 128.674 22.6536 128.683C22.6625 128.692 22.6746 128.697 22.6871 128.697C25.6384 129.998 28.2307 131.994 30.2426 134.515C30.2647 134.542 30.2946 134.563 30.3284 134.573C30.3622 134.584 30.3984 134.584 30.4324 134.574C30.6281 136.549 30.806 138.524 30.9483 140.505C30.9483 140.534 30.9957 140.534 30.9957 140.505C30.8416 138.516 30.6795 136.507 30.5094 134.479Z" fill="white"/>
<path d="M23.2452 103.771C21.6084 102.753 19.7386 102.169 17.8129 102.075C17.8035 102.075 17.7944 102.079 17.7878 102.086C17.7811 102.092 17.7773 102.101 17.7773 102.111C17.7773 102.12 17.7811 102.129 17.7878 102.136C17.7944 102.143 17.8035 102.146 17.8129 102.146C19.6747 102.499 21.4814 103.098 23.1859 103.926C23.2571 103.943 23.3105 103.819 23.2452 103.771Z" fill="white"/>
<path d="M24.3416 128.068C23.0836 127.346 21.6984 126.873 20.2615 126.675C20.214 126.675 20.2081 126.74 20.2615 126.752C21.6646 127.033 23.0218 127.508 24.2942 128.163C24.3476 128.193 24.395 128.098 24.3416 128.068Z" fill="white"/>
<path d="M55.9514 112.05C52.128 114.693 48.6165 117.761 45.4841 121.195C42.2538 124.831 39.7621 129.061 38.1482 133.649C34.7131 143.208 32.8661 153.265 32.6803 163.42C32.565 169.044 33.1044 174.662 34.2874 180.162C34.297 180.202 34.3216 180.237 34.3561 180.259C34.3906 180.281 34.4324 180.289 34.4728 180.282C34.5132 180.274 34.5491 180.251 34.5731 180.218C34.5971 180.185 34.6074 180.143 34.6017 180.103C33.1296 170.398 33.1857 160.523 34.7678 150.836C36.3216 141.347 38.759 131.016 44.7962 123.3C48.0817 119.096 52.1796 115.792 56.2302 112.377C56.4437 112.187 56.1709 111.896 55.9514 112.05Z" fill="#EBEBEB"/>
<path d="M34.0088 156.576C36.1852 153.056 38.7428 149.787 41.6354 146.827C46.1603 142.302 49.9677 139.087 50.5607 136.098C51.1538 133.109 46.0299 130.903 46.0299 130.903C46.0299 130.903 52.2865 132.03 54.0004 129.403C55.7143 126.776 56.5387 111.558 56.5387 111.558C56.5387 111.558 45.1522 119.689 39.8444 131.087C34.5366 142.486 34.0088 156.576 34.0088 156.576Z" fill="#EBEBEB"/>
<path d="M52.453 125.833C51.7032 125.721 50.9432 125.695 50.1876 125.756C50.0986 125.756 50.1045 125.91 50.1876 125.916C50.9348 125.916 51.688 125.88 52.4352 125.916C52.4438 125.914 52.4515 125.909 52.4576 125.903C52.4637 125.897 52.4679 125.889 52.4698 125.88C52.4716 125.871 52.471 125.862 52.4681 125.854C52.4651 125.846 52.4599 125.838 52.453 125.833Z" fill="white"/>
<path d="M44.2745 140.594C43.0721 140.618 41.8835 140.855 40.7637 141.294C40.7637 141.294 40.7637 141.353 40.7637 141.347C41.9498 141.068 43.0944 140.956 44.2686 140.754C44.2839 140.747 44.297 140.736 44.3065 140.722C44.3159 140.709 44.3212 140.692 44.3218 140.676C44.3224 140.659 44.3183 140.642 44.31 140.628C44.3016 140.613 44.2893 140.602 44.2745 140.594Z" fill="white"/>
<path d="M41.8193 135.493C41.3201 135.489 40.8216 135.533 40.3307 135.624C40.3217 135.627 40.3138 135.633 40.3083 135.641C40.3028 135.649 40.2998 135.659 40.2998 135.668C40.2998 135.678 40.3028 135.687 40.3083 135.695C40.3138 135.703 40.3217 135.709 40.3307 135.713C40.8278 135.742 41.3266 135.72 41.8193 135.648C41.8397 135.648 41.8593 135.639 41.8738 135.625C41.8883 135.611 41.8964 135.591 41.8964 135.57C41.8964 135.55 41.8883 135.53 41.8738 135.516C41.8593 135.502 41.8397 135.493 41.8193 135.493Z" fill="white"/>
<path d="M0.626258 128.193C4.33233 129.449 7.88371 131.122 11.2122 133.18C14.6657 135.375 17.6606 138.219 20.0308 141.554C25.0177 148.496 28.8359 156.207 31.3342 164.381C32.7276 168.907 33.5874 173.58 33.8962 178.305C33.8897 178.336 33.8729 178.363 33.8486 178.383C33.8244 178.403 33.794 178.413 33.7628 178.413C33.7315 178.413 33.7012 178.403 33.6769 178.383C33.6526 178.363 33.6358 178.336 33.6293 178.305C32.5825 170.112 30.2572 162.133 26.7381 154.661C23.2807 147.336 18.9218 139.544 12.2559 134.693C8.62647 132.054 4.5463 130.322 0.477996 128.495C0.264499 128.424 0.412761 128.122 0.626258 128.193Z" fill="#EBEBEB"/>
<path d="M28.6773 159.156C26.1008 156.812 23.2748 154.757 20.2501 153.03C15.5413 150.414 11.7162 148.695 10.5479 146.411C9.37955 144.128 13.0149 141.163 13.0149 141.163C13.0149 141.163 8.21125 143.535 6.21862 141.786C4.22598 140.036 0.0390625 127.938 0.0390625 127.938C0.0390625 127.938 11.135 131.882 18.0558 139.882C24.9767 147.882 28.6773 159.156 28.6773 159.156Z" fill="#EBEBEB"/>
<path d="M19.4674 148.019C18.3765 147.943 17.2811 148.077 16.2412 148.416C16.2412 148.416 16.2412 148.469 16.2412 148.463C17.3021 148.282 18.3739 148.171 19.4496 148.131C19.5267 148.131 19.5445 148.025 19.4674 148.019Z" fill="white"/>
<path d="M9.78883 135.328C9.29119 135.287 8.79032 135.315 8.30029 135.411C8.24691 135.411 8.2647 135.506 8.30029 135.5C8.79252 135.446 9.27288 135.464 9.75918 135.452C9.77429 135.453 9.78913 135.448 9.80118 135.439C9.81323 135.43 9.82173 135.417 9.82523 135.402C9.82874 135.387 9.82702 135.372 9.82038 135.358C9.81374 135.345 9.80259 135.334 9.78883 135.328Z" fill="white"/>
<path d="M42.9877 193.6H17.9434L21.5135 167.441L22.4268 160.733H38.5043L39.4176 167.441L42.9877 193.6Z" fill="#DBDBDB"/>
<path d="M39.4178 167.441H21.5137L22.427 160.733H38.5045L39.4178 167.441Z" fill="#C7C7C7"/>
<path d="M40.7996 158.409H20.126V164.09H40.7996V158.409Z" fill="#DBDBDB"/>
<path d="M2.01953 193.6L47.0971 193.458L92.1746 193.405L182.33 193.304L272.485 193.405L317.562 193.458L362.64 193.6L317.562 193.748L272.485 193.796L182.33 193.897L92.1746 193.796L47.0971 193.743L2.01953 193.6Z" fill="#343536"/>
<path d="M183.516 237.8C277.432 237.8 353.567 229.458 353.567 219.167C353.567 208.876 277.432 200.533 183.516 200.533C89.6 200.533 13.4658 208.876 13.4658 219.167C13.4658 229.458 89.6 237.8 183.516 237.8Z" fill="#EBEBEB"/>
<path d="M143.93 216.083C142.548 216.551 102.926 216.676 101.408 215.739C100.815 215.383 100.477 209.613 100.222 202.627C100.169 201.12 100.127 199.56 100.092 197.983L96.9307 176.847L123.422 176.675L125.919 197.817L125.818 202.466C125.818 202.466 141.012 209.198 142.566 210.419C144.119 211.641 145.311 215.614 143.93 216.083Z" fill="#FFE7E1"/>
<path d="M143.93 216.083C142.548 216.551 102.926 216.676 101.408 215.739C100.708 215.3 100.329 206.873 100.115 197.983L125.889 197.817L125.788 202.466C125.788 202.466 140.982 209.197 142.536 210.419C144.09 211.641 145.311 215.614 143.93 216.083Z" fill="white"/>
<path d="M143.93 216.083C142.548 216.551 102.927 216.676 101.409 215.739C100.816 215.383 100.478 209.613 100.223 202.626L125.765 202.466C125.765 202.466 140.959 209.197 142.513 210.419C144.067 211.641 145.312 215.614 143.93 216.083Z" fill="#A6A6A6"/>
<path d="M143.355 214.499C136.713 214.357 109.907 214.422 103.33 214.79C103.277 214.79 103.277 214.826 103.33 214.832C109.913 215.11 136.719 214.832 143.355 214.606C143.497 214.6 143.497 214.499 143.355 214.499Z" fill="#343536"/>
<path d="M139.98 209.002C139.242 208.985 138.508 209.122 137.825 209.404C137.142 209.686 136.525 210.106 136.013 210.639C135.08 211.589 134.552 212.865 134.542 214.197C134.542 214.238 134.613 214.238 134.619 214.197C134.84 212.885 135.479 211.679 136.44 210.76C137.402 209.841 138.636 209.257 139.956 209.097C139.969 209.1 139.982 209.098 139.994 209.091C140.005 209.085 140.013 209.074 140.016 209.061C140.019 209.049 140.017 209.035 140.01 209.024C140.004 209.013 139.993 209.005 139.98 209.002Z" fill="#343536"/>
<path d="M128.362 203.119C125.706 203.089 122.628 204.038 120.979 206.22C120.92 206.303 121.038 206.392 121.115 206.351C123.437 205.126 125.882 204.152 128.41 203.445C128.449 203.434 128.483 203.41 128.505 203.376C128.527 203.342 128.536 203.301 128.53 203.261C128.524 203.221 128.504 203.184 128.473 203.158C128.442 203.132 128.403 203.118 128.362 203.119Z" fill="#343536"/>
<path d="M130.426 203.908C127.763 203.908 124.685 204.833 123.042 207.009C122.977 207.098 123.096 207.187 123.179 207.146C125.497 205.916 127.94 204.94 130.467 204.234C130.506 204.223 130.539 204.199 130.561 204.166C130.584 204.133 130.593 204.092 130.588 204.053C130.583 204.013 130.564 203.977 130.534 203.95C130.504 203.923 130.466 203.908 130.426 203.908Z" fill="#343536"/>
<path d="M132.479 204.702C129.822 204.702 126.744 205.621 125.095 207.804C125.036 207.887 125.154 207.976 125.232 207.934C127.553 206.709 129.998 205.735 132.526 205.028C132.565 205.018 132.599 204.993 132.621 204.959C132.643 204.925 132.652 204.884 132.647 204.844C132.641 204.804 132.62 204.768 132.589 204.741C132.559 204.715 132.519 204.701 132.479 204.702Z" fill="#343536"/>
<path d="M134.536 205.497C131.873 205.467 128.795 206.416 127.152 208.598C127.087 208.681 127.211 208.77 127.288 208.729C129.609 207.503 132.055 206.528 134.583 205.823C134.622 205.812 134.656 205.788 134.678 205.754C134.7 205.72 134.709 205.679 134.703 205.639C134.698 205.599 134.677 205.562 134.646 205.536C134.615 205.51 134.576 205.496 134.536 205.497Z" fill="#343536"/>
<path d="M105.002 208.474C102.037 208.474 102.037 213.13 105.002 213.112C107.967 213.094 107.991 208.456 105.002 208.474Z" fill="#343536"/>
<path d="M131.214 196.014C129.868 194.899 128.172 196.014 127.348 197.159C125.976 199.182 125.158 201.529 124.976 203.967C124.976 204.02 125.017 204.044 125.059 204.044C125.069 204.094 125.092 204.141 125.124 204.181C125.156 204.221 125.198 204.252 125.245 204.272C125.292 204.293 125.343 204.301 125.395 204.298C125.446 204.294 125.495 204.278 125.539 204.252C127.425 202.941 129.607 201.767 131.037 199.911C131.849 198.831 132.513 197.052 131.214 196.014ZM127.976 201.672C127.063 202.342 126.12 202.965 125.231 203.671C125.705 202.342 126.114 201.002 126.719 199.721C126.999 199.107 127.32 198.512 127.68 197.942C128.273 197.058 130.859 194.828 131.131 197.716C131.286 199.3 129.062 200.877 127.976 201.672Z" fill="#343536"/>
<path d="M118.358 204.975C120.671 205.319 123.061 204.655 125.332 204.293C125.382 204.28 125.427 204.256 125.465 204.222C125.504 204.189 125.534 204.147 125.553 204.099C125.572 204.052 125.579 204.001 125.575 203.95C125.571 203.899 125.555 203.85 125.528 203.807C125.537 203.8 125.544 203.792 125.548 203.782C125.553 203.772 125.556 203.761 125.556 203.751C125.556 203.74 125.553 203.729 125.548 203.719C125.544 203.709 125.537 203.701 125.528 203.694C123.703 202.067 121.482 200.948 119.087 200.45C117.688 200.183 115.707 200.569 115.529 202.306C115.316 203.943 117.006 204.762 118.358 204.975ZM116.745 203.469C114.966 201.192 118.364 200.996 119.384 201.233C120.046 201.399 120.696 201.609 121.329 201.862C122.626 202.4 123.895 203.003 125.131 203.67C124.004 203.783 122.895 203.985 121.774 204.139C120.434 204.317 117.741 204.72 116.745 203.469Z" fill="#343536"/>
<path d="M57.9795 79.1543C57.9795 79.1543 88.7409 131.485 89.5652 135.162C90.8284 140.808 97.5239 196.56 97.5239 196.56L129.548 195.967C129.548 195.967 124.033 146.809 118.808 130.613C115.048 118.948 87.8987 80.2574 87.8987 80.2574L57.9795 79.1543Z" fill="#949494"/>
<path d="M126.636 191.08C122.04 191.044 105.749 190.861 99.6291 191.43C99.5817 191.43 99.5876 191.513 99.6291 191.519C101.734 191.821 122.034 191.353 126.631 191.205C126.64 191.208 126.65 191.209 126.661 191.208C126.671 191.207 126.68 191.203 126.689 191.197C126.697 191.192 126.704 191.184 126.709 191.175C126.715 191.166 126.717 191.156 126.718 191.146C126.718 191.136 126.716 191.126 126.712 191.117C126.708 191.107 126.702 191.099 126.694 191.093C126.686 191.086 126.677 191.082 126.667 191.079C126.657 191.077 126.646 191.077 126.636 191.08Z" fill="#343536"/>
<path d="M63.2274 83.958C65.2438 87.119 67.3788 90.2147 69.4307 93.3519C71.4827 96.4891 73.5465 99.6263 75.5806 102.758C79.6371 109.083 83.5907 115.451 87.4416 121.86C89.3209 124.83 90.9287 127.965 92.2453 131.224C93.447 134.484 94.3502 137.847 94.9436 141.27C95.5722 144.704 95.9874 148.173 96.3729 151.643C96.7682 155.331 97.1814 159.022 97.6123 162.715C98.4544 170.27 99.2986 177.826 100.145 185.381C100.245 186.306 100.346 187.231 100.441 188.162C100.441 188.299 100.21 188.323 100.192 188.162C99.2491 180.66 98.4663 173.129 97.6123 165.627C97.1853 161.882 96.7603 158.14 96.3373 154.4C95.9399 150.919 95.5604 147.432 95.0207 143.974C94.5255 140.562 93.7721 137.191 92.7671 133.893C91.6598 130.477 90.176 127.195 88.343 124.107C84.6365 117.708 80.7105 111.422 76.7845 105.13C72.8585 98.8376 68.8258 92.492 64.6863 86.2769C64.1763 85.5118 63.6604 84.7468 63.1266 83.9936C63.0851 83.9521 63.1919 83.8987 63.2274 83.958Z" fill="#343536"/>
<path d="M68.0612 219.167C66.6023 219.078 28.9201 203.813 27.8763 202.366C27.8299 202.281 27.8092 202.184 27.817 202.087C27.817 200.788 30.4324 196.257 32.6148 190.303C32.7512 189.924 33.7238 188.156 35.07 185.778C38.8121 179.261 45.3357 168.034 45.3357 168.034L69.9649 177.819L58.1751 195.463L56.3426 199.733C56.3426 199.733 67.9011 211.682 68.8737 213.373C69.8463 215.063 69.5142 219.25 68.0612 219.167Z" fill="#FFE7E1"/>
<path d="M68.0612 219.167C66.6023 219.078 28.9201 203.813 27.8763 202.366C27.8299 202.281 27.8092 202.184 27.817 202.087C27.817 200.788 30.4324 196.257 32.6148 190.303C32.7512 189.924 33.7238 188.156 35.07 185.778L58.1989 195.463L56.3663 199.733C56.3663 199.733 67.9248 211.683 68.8974 213.373C69.87 215.063 69.5142 219.25 68.0612 219.167Z" fill="white"/>
<path d="M68.061 219.167C66.6021 219.078 28.9199 203.813 27.8761 202.366C27.4728 201.814 29.1571 196.673 32.6205 190.303L56.3424 199.739C56.3424 199.739 67.9009 211.677 68.8794 213.379C69.8579 215.081 69.514 219.25 68.061 219.167Z" fill="#A6A6A6"/>
<path d="M68.1205 217.482C62.0181 214.861 37.1457 204.862 30.9128 202.739C30.8594 202.739 30.8475 202.739 30.9128 202.775C36.9085 205.503 61.858 215.3 68.0968 217.601C68.2154 217.631 68.251 217.536 68.1205 217.482Z" fill="#343536"/>
<path d="M67.0525 211.119C66.3758 210.822 65.6448 210.668 64.9057 210.668C64.1666 210.668 63.4355 210.822 62.7588 211.119C61.5422 211.652 60.5778 212.633 60.0664 213.859C60.0664 213.895 60.1198 213.924 60.1376 213.889C60.8367 212.752 61.8855 211.872 63.1269 211.381C64.3682 210.89 65.7352 210.815 67.0229 211.167C67.0328 211.164 67.0414 211.157 67.0469 211.149C67.0524 211.14 67.0544 211.129 67.0525 211.119Z" fill="#343536"/>
<path d="M58.4954 201.31C56.0462 200.284 52.8318 200.011 50.4893 201.417C50.4003 201.47 50.4893 201.595 50.5664 201.589C53.1778 201.324 55.8099 201.338 58.4183 201.63C58.4585 201.635 58.4988 201.624 58.5318 201.601C58.5649 201.578 58.5883 201.543 58.5977 201.504C58.6072 201.465 58.602 201.424 58.5832 201.388C58.5644 201.352 58.5332 201.325 58.4954 201.31Z" fill="#343536"/>
<path d="M60.1029 202.817C57.6536 201.791 54.4393 201.518 52.0967 202.923C52.0078 202.977 52.0967 203.101 52.1738 203.095C54.785 202.827 57.4175 202.841 60.0258 203.137C60.0659 203.141 60.1063 203.131 60.1393 203.107C60.1723 203.084 60.1957 203.05 60.2052 203.011C60.2146 202.971 60.2094 202.93 60.1906 202.894C60.1718 202.859 60.1406 202.831 60.1029 202.817Z" fill="#343536"/>
<path d="M61.715 204.323C59.2598 203.297 56.0455 203.024 53.7089 204.43C53.614 204.483 53.7089 204.608 53.78 204.602C56.3913 204.334 59.0237 204.348 61.632 204.643C61.6729 204.65 61.715 204.641 61.7498 204.619C61.7846 204.596 61.8098 204.561 61.8202 204.521C61.8306 204.481 61.8256 204.438 61.8061 204.401C61.7866 204.365 61.7541 204.337 61.715 204.323Z" fill="#343536"/>
<path d="M63.3224 205.829C60.8672 204.803 57.6588 204.53 55.3163 205.93C55.2214 205.989 55.3163 206.114 55.3875 206.108C57.9987 205.84 60.6312 205.854 63.2394 206.149C63.2804 206.156 63.3224 206.147 63.3572 206.125C63.3921 206.102 63.4172 206.067 63.4276 206.027C63.438 205.987 63.433 205.944 63.4135 205.908C63.3941 205.871 63.3616 205.843 63.3224 205.829Z" fill="#343536"/>
<path d="M34.827 197.509C32.0574 196.406 30.3376 200.717 33.119 201.82C35.9004 202.923 37.6262 198.612 34.827 197.509Z" fill="#343536"/>
<path d="M63.8028 195.795C62.9666 194.259 60.9918 194.638 59.7879 195.404C57.7599 196.762 56.1239 198.629 55.0435 200.818C55.0388 200.828 55.0362 200.838 55.0361 200.849C55.036 200.86 55.0384 200.87 55.0429 200.88C55.0475 200.89 55.0542 200.898 55.0625 200.905C55.0708 200.912 55.0805 200.916 55.091 200.919C55.091 201.115 55.2214 201.346 55.4527 201.298C57.7004 200.782 60.1615 200.516 62.1779 199.329C63.3343 198.642 64.5916 197.248 63.8028 195.795ZM58.673 199.822C57.5758 200.1 56.4728 200.326 55.3875 200.646C56.2852 199.565 57.2372 198.529 58.24 197.544C58.7337 197.074 59.2588 196.638 59.8116 196.24C60.6715 195.647 63.9214 194.55 63.0912 197.331C62.6345 198.867 59.9836 199.49 58.673 199.822Z" fill="#343536"/>
<path d="M48.5205 199.276C50.5369 200.462 52.998 200.741 55.2397 201.263C55.471 201.316 55.6252 201.085 55.6074 200.883C55.6186 200.882 55.6292 200.878 55.6383 200.871C55.6474 200.865 55.6547 200.856 55.6595 200.846C55.6642 200.836 55.6663 200.825 55.6655 200.813C55.6647 200.802 55.661 200.791 55.6549 200.782C54.5761 198.589 52.9401 196.718 50.9105 195.356C49.7244 194.585 47.7377 194.199 46.8956 195.729C46.0534 197.259 47.3403 198.582 48.5205 199.276ZM47.5954 197.271C46.771 194.49 50.015 195.593 50.8749 196.192C51.4271 196.591 51.9503 197.029 52.4405 197.503C53.4414 198.49 54.3915 199.527 55.2872 200.61C54.2019 200.29 53.0988 200.059 52.0017 199.78C50.6733 199.424 48.0461 198.831 47.5954 197.271Z" fill="#343536"/>
<path d="M60.0903 194.478L32.5195 183.346C32.5195 183.346 66.7028 133.086 66.9519 129.344C67.1772 126.034 52.1613 97.2004 51.5741 88.7969C50.9337 79.7233 55.2985 72.7075 60.1022 68.3486L88.5388 80.4409C88.5388 80.4409 85.538 85.2386 80.8292 87.9133C80.8292 87.9133 95.4122 121.243 94.5819 131.49C93.7517 141.738 60.0903 194.478 60.0903 194.478Z" fill="#949494"/>
<path d="M61.3125 189.236C57.3272 187.522 58.4955 187.955 54.4865 186.27C52.5294 185.452 39.6603 180.097 37.6795 179.652C37.638 179.652 37.6084 179.711 37.6499 179.735C39.3638 180.785 52.3397 185.914 54.3145 186.697C58.3532 188.287 57.2086 187.788 61.265 189.33C61.2711 189.338 61.2791 189.345 61.2884 189.349C61.2976 189.353 61.3077 189.355 61.3178 189.354C61.3279 189.353 61.3375 189.349 61.3459 189.344C61.3542 189.338 61.361 189.33 61.3655 189.321C61.37 189.312 61.3722 189.302 61.3717 189.292C61.3713 189.282 61.3682 189.272 61.3629 189.264C61.3576 189.255 61.3502 189.248 61.3413 189.243C61.3325 189.238 61.3226 189.236 61.3125 189.236Z" fill="#343536"/>
<path d="M85.4903 87.3028C82.5297 87.9929 79.6332 88.9333 76.8318 90.1138C76.8205 90.1177 76.8101 90.1238 76.8012 90.1317C76.7922 90.1396 76.7849 90.1492 76.7797 90.16C76.7745 90.1707 76.7714 90.1824 76.7707 90.1943C76.77 90.2062 76.7716 90.2182 76.7755 90.2295C76.7794 90.2408 76.7855 90.2512 76.7934 90.2601C76.8013 90.2691 76.8109 90.2764 76.8216 90.2816C76.8324 90.2868 76.844 90.2899 76.856 90.2906C76.8679 90.2913 76.8798 90.2897 76.8911 90.2858C79.7971 89.4378 82.7504 88.6431 85.6089 87.6408C85.8284 87.5637 85.7157 87.2553 85.4903 87.3028Z" fill="#343536"/>
<path d="M82.105 86.152C81.8287 86.6435 81.585 87.1527 81.3756 87.6762C81.1709 88.0735 81.0441 88.5063 81.002 88.9512C81.002 89.0402 81.1206 89.058 81.1739 89.0046C81.4715 88.6487 81.7116 88.2485 81.8856 87.8185C82.1287 87.35 82.3778 86.8874 82.6091 86.407C82.7692 86.0571 82.2889 85.8318 82.105 86.152Z" fill="#343536"/>
<path d="M82.4607 83.4598C82.6387 83.021 82.8106 82.588 82.9945 82.1492C83.1783 81.7103 83.4096 81.2596 83.5875 80.797C83.5875 80.7259 83.7299 80.797 83.7002 80.8504C83.5223 81.2893 83.4096 81.7518 83.2732 82.2026C83.1368 82.6533 82.9826 83.104 82.8344 83.5547C82.5556 84.3909 82.2413 85.2212 81.8558 86.0336C82.3225 86.0569 82.7885 85.9759 83.2198 85.7964C83.6605 85.5144 83.9992 85.0988 84.1865 84.6103C84.4356 84.124 84.6669 83.6259 84.9219 83.1396C85.2358 82.6138 85.4998 82.0599 85.7106 81.485C85.7106 81.4138 85.853 81.485 85.8233 81.5383C85.4366 82.7539 84.93 83.928 84.311 85.0433C84.0442 85.4762 83.8366 85.9328 83.3503 86.0989C82.8239 86.2461 82.273 86.2844 81.7313 86.2116C81.6601 86.2116 81.5771 86.2116 81.6008 86.1048C81.8436 85.2095 82.1306 84.3268 82.4607 83.4598Z" fill="#343536"/>
<path d="M81.2507 88.999C82.2649 91.1399 83.1544 93.2748 84.0974 95.4098C85.0403 97.5448 85.8765 99.6086 86.7246 101.732C88.4207 106.014 89.9389 110.378 91.2733 114.779C91.9315 116.961 92.5424 119.161 93.088 121.379C93.6889 123.59 94.1289 125.842 94.4045 128.116C94.6425 130.387 94.4412 132.682 93.8115 134.877C93.1574 137.046 92.3182 139.156 91.3029 141.181C90.6802 142.462 90.4726 142.29 90.7692 141.644C91.6172 139.805 93.8411 134.237 93.681 129.557C93.5513 127.317 93.2057 125.095 92.6491 122.921C92.1312 120.68 91.548 118.456 90.8996 116.25C89.6364 111.897 88.136 107.633 86.5941 103.374C85.7283 101.002 84.815 98.6301 83.9254 96.2579C83.0358 93.8857 82.1462 91.7033 81.1499 89.082C81.1203 88.9753 81.2211 88.9337 81.2507 88.999Z" fill="#343536"/>
<path d="M60.3224 81.9237C60.8146 81.7398 61.5085 82.0423 62.0067 82.1253C62.6518 82.2348 63.3037 82.3002 63.9578 82.321C64.6049 82.3438 65.2529 82.322 65.8971 82.2558C66.5458 82.239 67.1815 82.0705 67.7533 81.7636C68.6914 81.0802 69.4956 80.2298 70.1255 79.255C70.8761 78.2589 71.496 77.1706 71.9699 76.0169C71.9699 75.9458 72.0944 76.0169 72.0707 76.0644C71.8631 76.7227 71.7089 77.3869 71.4776 78.0333C71.222 78.6406 70.9165 79.2258 70.5643 79.7828C69.9934 80.9036 69.1489 81.8623 68.1091 82.5701C66.9645 83.2225 65.4938 83.1631 64.2187 83.1098C63.4792 83.0666 62.7439 82.9695 62.0185 82.8192C61.4967 82.7065 60.6189 82.6235 60.2868 82.1668C60.2712 82.1493 60.2596 82.1287 60.2529 82.1062C60.2461 82.0838 60.2444 82.0601 60.2478 82.0369C60.2512 82.0137 60.2596 81.9916 60.2725 81.972C60.2854 81.9524 60.3024 81.9359 60.3224 81.9237Z" fill="#343536"/>
<path d="M40.3893 178.074C44.9202 171.211 49.3681 164.292 53.7329 157.318C58.0977 150.344 62.4032 143.316 66.6494 136.235C67.6636 134.545 68.8319 132.86 69.4842 130.986C70.1959 128.952 69.7926 126.977 69.1521 124.985C67.9427 121.35 66.529 117.786 64.9178 114.31C63.3284 110.805 61.6145 107.359 59.9302 103.902C58.246 100.444 56.4846 97.0285 55.1858 93.4228C53.9997 89.9772 53.5194 86.4071 54.4445 82.8369C55.3697 79.2668 57.3623 76.1118 59.4439 73.1406C59.9895 72.3578 60.5529 71.5809 61.1045 70.7684C61.146 70.7091 61.2349 70.7684 61.1934 70.8396C58.8983 73.9353 56.6625 77.2148 55.3163 80.8502C54.6283 82.6421 54.2434 84.5362 54.1777 86.4545C54.1664 88.4018 54.4688 90.3381 55.0732 92.1893C56.1881 95.795 57.9494 99.205 59.5922 102.597C61.2349 105.989 62.9903 109.5 64.6094 112.993C66.2796 116.509 67.7643 120.11 69.0572 123.781C69.6088 125.412 70.2433 127.12 70.1959 128.869C70.1544 130.785 69.2411 132.511 68.2922 134.124C64.1409 141.151 59.8887 148.096 55.5595 154.999C51.2302 161.902 46.7764 168.805 42.2693 175.637L40.5613 178.217C40.4723 178.323 40.3181 178.199 40.3893 178.074Z" fill="#343536"/>
<path d="M90.1169 48.4759C92.6848 54.1099 105.655 61.8728 111.728 62.709C116.092 63.3021 129.365 63.5156 133.913 62.8217C139.251 62.0033 135.171 47.6219 132.022 47.9955C123.363 49.0037 116.009 50.1305 113.696 50.1305C110.874 50.1305 95.6026 45.2319 93.7641 44.5381C89.257 42.8597 88.6639 45.2794 90.1169 48.4759Z" fill="#FFE7E1"/>
<path d="M90.2 49.9764C93.4499 54.786 104.249 62.6498 104.249 62.6498L105.75 59.3287L110.713 48.3455C110.713 48.3455 100.792 45.232 94.2624 43.8087C93.494 43.6338 92.7124 43.5227 91.9257 43.4766C87.7566 43.2512 87.3949 45.8251 90.2 49.9764Z" fill="#D6D6D6"/>
<path d="M90.2 49.9762C93.4499 54.7858 104.249 62.6496 104.249 62.6496L105.75 59.3286C101.723 54.6494 95.5018 47.5625 91.9257 43.4883C87.7566 43.251 87.3949 45.8249 90.2 49.9762Z" fill="#343536"/>
<path d="M102.304 60.4196C103.128 58.3973 106.793 50.2548 107.706 48.5587C107.766 48.4401 107.861 48.4519 107.807 48.5587C106.217 52.608 104.408 56.5675 102.387 60.4196C102.363 60.4908 102.268 60.4671 102.304 60.4196Z" fill="#343536"/>
<path d="M130.432 48.1439C135.698 47.4559 142.216 46.2758 147.737 48.6183C148.357 48.8616 148.877 49.3065 149.213 49.8815C151.704 50.8897 151.977 52.3664 151.977 52.3664C154.011 54.015 154.082 55.5688 154.082 55.5688C154.082 55.5688 157 56.7549 156.555 58.6645C156.069 60.7758 152.072 58.6645 149.166 58.8365C142.494 59.2517 133.154 61.7009 131.226 62.0093L130.432 48.1439Z" fill="#FFE7E1"/>
<path d="M141.872 54.3589C143.823 54.2255 145.78 54.2255 147.731 54.3589C149.856 54.6254 151.957 55.0517 154.018 55.634C154.031 55.6387 154.046 55.6379 154.058 55.6318C154.071 55.6257 154.081 55.6147 154.086 55.6013C154.09 55.588 154.09 55.5733 154.084 55.5605C154.077 55.5477 154.067 55.5379 154.053 55.5331C150.182 54.0144 145.969 53.5877 141.872 54.2996C141.777 54.2877 141.777 54.3648 141.872 54.3589Z" fill="#343536"/>
<path d="M140.632 48.197C143.888 48.3631 145.922 48.885 149.196 49.8694V49.8338C145.59 48.3275 144.113 48.1852 140.614 48.0547C140.502 48.1021 140.508 48.197 140.632 48.197Z" fill="#343536"/>
<path d="M141.16 59.8447C140.312 60.2421 140.52 60.6869 142.139 61.0605C143.758 61.4341 150.489 61.5468 150.252 63.8952C150.014 66.2437 140.52 65.9472 137.869 65.1169C135.218 64.2867 131.227 62.0093 131.227 62.0093C133.107 61.695 137.519 60.503 141.16 59.8447Z" fill="#FFE7E1"/>
<path d="M97.1681 57.4543C97.1266 58.4684 97.0317 59.5003 96.8894 60.5263C96.8894 60.4848 96.8894 60.4492 96.9309 60.4136C97.1266 59.8799 97.3223 59.3343 97.5595 58.8183C97.5595 58.8183 97.6188 58.8183 97.6129 58.8183C97.4989 59.3837 97.328 59.9361 97.1029 60.467C96.9961 60.722 96.8953 60.9711 96.7826 61.2202C96.7115 61.6768 96.6284 62.1276 96.5395 62.5783C96.3616 63.4263 95.5609 67.032 95.3534 67.6429C95.3178 67.7674 95.1636 67.7378 95.1755 67.5955C95.217 66.9312 95.8871 63.1772 96.0235 62.3233C96.2885 60.6744 96.6428 59.0411 97.0851 57.4306C97.1147 57.401 97.174 57.4247 97.1681 57.4543Z" fill="#343536"/>
<path d="M91.0005 84.4205C89.417 85.233 87.3769 86.4962 78.1847 84.6874C77.5917 84.5688 77.0342 84.4264 76.453 84.2545C67.836 81.6688 57.4755 71.5336 56.9121 70.816C56.9121 70.816 70.6056 48.6183 88.1183 41.6381C90.2829 40.7782 93.8649 42.4387 95.8279 44.5084C96.5336 45.2497 98.0696 50.6998 97.4825 55.1121C96.8953 59.5244 92.578 83.608 91.0005 84.4205Z" fill="#D6D6D6"/>
<path d="M89.7664 54.9102C89.8325 55.8482 89.7012 56.7896 89.3809 57.6737C89.3057 56.7354 89.4373 55.7921 89.7664 54.9102Z" fill="white"/>
<path d="M83.7943 70.0273C83.832 70.4942 83.8161 70.9638 83.7468 71.4269C83.6897 71.8936 83.5762 72.3516 83.4088 72.7909C83.3679 72.3222 83.3839 71.8503 83.4562 71.3854C83.5169 70.9213 83.6303 70.4657 83.7943 70.0273Z" fill="white"/>
<path d="M73.6479 58.5991C73.7147 59.5391 73.5834 60.4826 73.2625 61.3687C73.1879 60.4284 73.3195 59.4833 73.6479 58.5991Z" fill="white"/>
<path d="M93.6751 69.2563C93.713 69.7251 93.6971 70.1967 93.6277 70.6619C93.5706 71.1285 93.4571 71.5866 93.2896 72.0259C93.2488 71.5572 93.2647 71.0852 93.3371 70.6204C93.397 70.1542 93.5104 69.6965 93.6751 69.2563Z" fill="white"/>
<path d="M80.6455 56.6422C81.1121 56.6025 81.5817 56.6164 82.0451 56.6837C82.512 56.7429 82.97 56.8584 83.4091 57.0277C82.471 57.095 81.5293 56.9637 80.6455 56.6422Z" fill="white"/>
<path d="M69.1289 67.5601C70.0669 67.494 71.0084 67.6253 71.8925 67.9456C70.9542 68.0208 70.0108 67.8892 69.1289 67.5601Z" fill="white"/>
<path d="M82.6973 79.3795C83.6353 79.3121 84.577 79.4435 85.4609 79.765C84.5226 79.839 83.5795 79.7074 82.6973 79.3795Z" fill="white"/>
<path d="M65.5762 75.086C66.5142 75.0199 67.4556 75.1512 68.3398 75.4715C67.4015 75.5455 66.4584 75.414 65.5762 75.086Z" fill="white"/>
<path d="M89.6777 44.2828C90.6158 44.2166 91.5572 44.348 92.4413 44.6683C91.5033 44.7344 90.5619 44.6031 89.6777 44.2828Z" fill="white"/>
<path d="M86.3272 48.0664C86.0274 48.4268 85.6849 48.7494 85.3072 49.0271C84.9397 49.3113 84.5419 49.554 84.1211 49.7507C84.4189 49.3926 84.7573 49.0702 85.1293 48.7899C85.5003 48.5047 85.9021 48.262 86.3272 48.0664Z" fill="white"/>
<path d="M68.0675 58.8184C67.764 59.1756 67.4197 59.4961 67.0416 59.7732C66.6778 60.0627 66.2794 60.3058 65.8555 60.4967C66.1605 60.1409 66.5047 59.8206 66.8814 59.5419C67.2461 59.2536 67.6443 59.0106 68.0675 58.8184Z" fill="white"/>
<path d="M90.8703 63.6694C90.5669 64.0286 90.2226 64.351 89.8443 64.6302C89.4797 64.9185 89.0814 65.1614 88.6582 65.3537C88.9616 64.9945 89.3059 64.6721 89.6842 64.393C90.0508 64.1075 90.4487 63.8648 90.8703 63.6694Z" fill="white"/>
<path d="M76.1027 72.9688C75.7993 73.3279 75.455 73.6503 75.0767 73.9295C74.7115 74.2169 74.3133 74.4598 73.8906 74.653C74.194 74.2939 74.5383 73.9714 74.9166 73.6923C75.2832 73.4069 75.6812 73.1641 76.1027 72.9688Z" fill="white"/>
<path d="M96.5275 50.9668C96.2241 51.3259 95.8798 51.6484 95.5015 51.9275C95.1341 52.2117 94.7363 52.4544 94.3154 52.651C94.6188 52.2919 94.9631 51.9695 95.3414 51.6903C95.7066 51.4029 96.1048 51.16 96.5275 50.9668Z" fill="white"/>
<path d="M96.2194 61.7423C95.8603 61.439 95.5378 61.0946 95.2587 60.7164C94.97 60.352 94.7271 59.9537 94.5352 59.5303C94.8956 59.8301 95.2182 60.1726 95.4959 60.5503C95.7792 60.9205 96.0218 61.3201 96.2194 61.7423Z" fill="white"/>
<path d="M63.3044 69.1671C62.9452 68.8638 62.6228 68.5194 62.3436 68.1412C62.0582 67.7746 61.8155 67.3766 61.6201 66.9551C61.9793 67.2585 62.3017 67.6028 62.5809 67.981C62.8683 68.3463 63.1112 68.7444 63.3044 69.1671Z" fill="white"/>
<path d="M92.2165 77.9976C91.8561 77.6978 91.5334 77.3553 91.2557 76.9776C90.9716 76.6101 90.7289 76.2123 90.5322 75.7915C90.8914 76.0949 91.2138 76.4392 91.493 76.8175C91.7792 77.1814 92.022 77.5775 92.2165 77.9976Z" fill="white"/>
<path d="M77.7272 52.8228C77.3682 52.5215 77.0458 52.1792 76.7665 51.8028C76.4835 51.4345 76.241 51.0368 76.043 50.6167C76.4034 50.9165 76.726 51.259 77.0037 51.6367C77.2867 52.005 77.5292 52.4027 77.7272 52.8228Z" fill="white"/>
<path d="M77.9831 83.0265C77.6239 82.7231 77.3015 82.3788 77.0223 82.0005C76.7378 81.6333 76.4952 81.2355 76.2988 80.8145C76.6592 81.1143 76.9819 81.4568 77.2596 81.8345C77.5449 82.2033 77.7877 82.6032 77.9831 83.0265Z" fill="white"/>
<path d="M80.444 65.2116C80.0882 64.9065 79.7679 64.5623 79.4891 64.1856C79.1996 63.8219 78.9566 63.4234 78.7656 62.9995C79.1229 63.303 79.4434 63.6473 79.7204 64.0255C80.0087 64.3901 80.2517 64.7884 80.444 65.2116Z" fill="white"/>
<path d="M92.6186 50.421C90.3829 50.0059 88.2835 45.386 88.0166 42.2785C88.0166 42.065 89.0604 40.3748 90.2524 38.2576C90.9759 36.9707 91.7409 35.5177 92.3518 34.1419C92.4763 33.8631 93.2058 34.8061 93.2058 34.8061L94.7951 35.9922L100.044 40.019C98.7938 41.5187 97.7322 43.1658 96.8827 44.9235C96.7988 45.1139 96.7352 45.3127 96.6929 45.5165C96.6905 45.5501 96.6905 45.5838 96.6929 45.6173C96.3667 46.7916 94.7714 50.8183 92.6186 50.421Z" fill="#FFE7E1"/>
<path d="M96.694 45.546C96.6917 45.5796 96.6917 45.6133 96.694 45.6468C96.3824 45.5555 96.0789 45.4384 95.7866 45.2969C90.04 42.6045 92.5723 34.9067 92.5723 34.9067L94.8259 36.0217L100.074 40.0485C98.8246 41.5482 97.763 43.1953 96.9134 44.953C96.8194 45.1423 96.7458 45.3411 96.694 45.546Z" fill="#343536"/>
<path d="M106.075 23.6328C106.075 23.6328 108.702 25.2993 108.714 28.2645C108.726 31.2297 107.528 34.1297 107.279 34.2365C107.03 34.3432 106.075 23.6328 106.075 23.6328Z" fill="#343536"/>
<path d="M93.0404 25.1752C91.4629 28.2887 91.5459 38.1036 93.5148 40.63C96.3733 44.295 101.877 45.5582 105.204 41.9347C108.424 38.4239 108.092 25.6378 105.797 23.2537C102.458 19.731 95.377 20.5672 93.0404 25.1752Z" fill="#FFE7E1"/>
<path d="M101.414 33.0327C101.414 33.0327 101.361 33.0683 101.367 33.092C101.403 33.7622 101.331 34.5331 100.732 34.7703C100.732 34.7703 100.732 34.8119 100.732 34.8059C101.474 34.6873 101.557 33.6613 101.414 33.0327Z" fill="#343536"/>
<path d="M100.803 32.3508C99.7234 32.2915 99.6878 34.4502 100.69 34.5036C101.692 34.5569 101.704 32.3983 100.803 32.3508Z" fill="#343536"/>
<path d="M105.073 33.0093C105.073 33.0093 105.126 33.0093 105.126 33.0686C105.091 33.7387 105.168 34.5097 105.773 34.741C105.773 34.741 105.773 34.7825 105.773 34.7766C105.025 34.6639 104.936 33.6379 105.073 33.0093Z" fill="#343536"/>
<path d="M105.684 32.3213C106.757 32.256 106.811 34.4147 105.814 34.474C104.818 34.5333 104.782 32.3746 105.684 32.3213Z" fill="#343536"/>
<path d="M100.127 30.7083C100.411 30.6277 100.69 30.5327 100.963 30.4237C101.275 30.3673 101.559 30.2087 101.77 29.9729C101.821 29.8866 101.843 29.7858 101.831 29.6861C101.819 29.5864 101.775 29.4934 101.705 29.4214C101.544 29.2994 101.354 29.2224 101.154 29.1985C100.954 29.1745 100.751 29.2044 100.566 29.285C100.166 29.3922 99.8194 29.6435 99.5935 29.9907C99.5483 30.0733 99.5278 30.1671 99.5344 30.261C99.541 30.3549 99.5743 30.445 99.6305 30.5205C99.6866 30.596 99.7633 30.6539 99.8513 30.6872C99.9394 30.7204 100.035 30.7278 100.127 30.7083Z" fill="#343536"/>
<path d="M106.42 31.6632C106.131 31.5987 105.846 31.5195 105.566 31.4259C105.253 31.3846 104.963 31.2407 104.741 31.0167C104.684 30.9343 104.657 30.8349 104.663 30.7348C104.669 30.6346 104.71 30.5396 104.777 30.4652C104.93 30.3344 105.115 30.2473 105.313 30.2128C105.512 30.1784 105.716 30.198 105.904 30.2695C106.309 30.3536 106.669 30.5862 106.912 30.9218C106.963 31.0013 106.989 31.0938 106.989 31.1881C106.988 31.2823 106.959 31.3744 106.907 31.4529C106.855 31.5315 106.781 31.5932 106.695 31.6305C106.608 31.6678 106.513 31.6792 106.42 31.6632Z" fill="#343536"/>
<path d="M99.896 39.3727C100.056 39.5328 100.21 39.7463 100.453 39.7701C100.703 39.7699 100.949 39.7174 101.177 39.6159C101.177 39.6159 101.218 39.6159 101.177 39.6515C101.08 39.7818 100.949 39.8832 100.798 39.9449C100.648 40.0065 100.484 40.026 100.323 40.0014C100.187 39.9644 100.066 39.8885 99.9731 39.7831C99.8803 39.6777 99.8205 39.5474 99.8011 39.4083C99.7964 39.3957 99.7968 39.3818 99.8024 39.3695C99.808 39.3573 99.8181 39.3478 99.8307 39.3431C99.8433 39.3384 99.8573 39.3388 99.8695 39.3444C99.8817 39.3499 99.8912 39.3601 99.896 39.3727Z" fill="#343536"/>
<path d="M103.774 36.5141C103.774 36.5141 103.804 37.5104 103.774 37.9789C102.863 37.8822 101.943 37.9142 101.04 38.0738C100.827 38.1212 100.851 37.9493 101.094 37.8366C101.821 37.5044 102.63 37.397 103.418 37.5282C103.466 37.4037 103.341 35.9863 103.418 35.9922C103.777 36.0626 104.124 36.1824 104.45 36.348C104.45 34.2605 104.118 32.1967 104.148 30.1092C104.148 30.038 104.261 30.0262 104.272 30.1092C104.694 32.3175 104.893 34.5626 104.865 36.8106C104.871 37.0656 103.952 36.609 103.774 36.5141Z" fill="#343536"/>
<path d="M102.44 37.623C102.203 38.2448 101.765 38.7691 101.194 39.1115C100.299 39.4733 100.008 38.6608 100.91 37.9254C101.383 37.6865 101.912 37.5819 102.44 37.623Z" fill="#343536"/>
<path d="M101.509 38.9276C101.414 39.0047 101.308 39.0667 101.194 39.1115C100.37 39.4436 100.044 38.7853 100.708 38.1211C101.159 38.1567 101.675 38.3227 101.509 38.9276Z" fill="#FF99BA"/>
<path d="M92.5899 33.5666C93.6752 33.8987 94.9206 30.6369 95.2764 29.4153C95.5848 28.3122 95.9406 24.8073 95.994 24.5641C96.0474 24.321 100.738 27.6658 103.455 26.8711C106.171 26.0764 108.015 23.6153 108.057 22.4707C108.098 21.3261 104.7 18.4202 101.764 18.2719C98.8288 18.1236 94.8494 21.8302 94.8494 21.8302C95.3301 21.2847 95.7664 20.7017 96.1541 20.0866C96.1067 19.9562 94.2089 20.7153 93.859 22.0674C93.859 22.0674 94.2386 20.3654 94.0962 20.3357C93.9539 20.3061 92.4772 21.759 92.8093 22.8621C92.8093 22.8621 91.1014 24.3388 90.9472 25.9578C90.793 27.5768 91.3148 33.1752 92.5899 33.5666Z" fill="#343536"/>
<path d="M105.399 26.2541C104.591 26.6921 103.721 27.0041 102.819 27.1792C101.807 27.2695 100.788 27.1065 99.8542 26.7048C98.9135 26.3414 98.0398 25.8244 97.2685 25.1747C96.5865 24.6173 95.9757 23.9353 95.2462 23.4371C95.0624 23.3066 94.8548 23.5735 94.9675 23.7396C96.1845 25.4586 97.923 26.7396 99.9254 27.3927C100.855 27.696 101.848 27.7526 102.807 27.5572C103.765 27.3618 104.656 26.9209 105.393 26.2778C105.393 26.2778 105.411 26.2541 105.399 26.2541Z" fill="#343536"/>
<path d="M93.7226 33.2762C93.7226 33.2762 92.0384 29.8603 90.5202 30.4118C89.002 30.9634 89.9271 35.6899 91.4869 36.5558C91.6779 36.6794 91.8919 36.7632 92.1162 36.802C92.3404 36.8409 92.5701 36.8341 92.7916 36.7821C93.0131 36.73 93.2219 36.6338 93.4053 36.4991C93.5887 36.3644 93.743 36.1941 93.859 35.9983L93.7226 33.2762Z" fill="#FFE7E1"/>
<path d="M90.8225 31.7578C90.8225 31.7578 90.7869 31.7578 90.8225 31.8053C91.9018 32.4457 92.3407 33.5844 92.6016 34.7705C92.5525 34.6449 92.4767 34.5315 92.3794 34.4382C92.2821 34.3448 92.1657 34.2736 92.0383 34.2296C91.9108 34.1856 91.7754 34.1699 91.6412 34.1834C91.507 34.1969 91.3774 34.2394 91.2613 34.3079C91.2257 34.3079 91.2613 34.3732 91.2613 34.3732C91.4735 34.3402 91.6906 34.3738 91.8829 34.4694C92.0751 34.565 92.233 34.7178 92.3347 34.9069C92.5045 35.2236 92.6397 35.5576 92.738 35.9032C92.7736 36.0159 92.9693 35.9862 92.9515 35.8617C93.2065 34.385 92.3762 32.1492 90.8225 31.7578Z" fill="#343536"/>
<path d="M82.6023 48.529C81.4162 55.2482 88.6988 77.8848 93.3661 82.1133C100.311 88.3996 113.15 92.5331 117.806 93.8793C119.834 94.4724 125.444 80.1977 123.392 79.2548C118.998 77.2562 105.346 72.9863 104.047 71.9188C102.748 70.8513 94.9199 59.5419 91.4328 53.0302C86.7655 44.265 83.1894 45.1308 82.6023 48.529Z" fill="#FFE7E1"/>
<path d="M119.935 77.9976C119.935 77.9976 125.996 79.5454 129.904 80.7374C132.087 81.4076 135.728 82.8843 137.11 84.1059C139.174 85.9385 146.634 94.9053 144.499 96.7616C142.566 98.4458 137.133 89.9237 137.133 89.9237C137.133 89.9237 143.372 98.0366 140.692 99.6319C138.011 101.227 133.107 90.7837 133.107 90.7837C133.107 90.7837 139.328 99.2642 136.285 100.468C133.984 101.375 129.05 92.1655 129.05 92.1655C129.05 92.1655 134.352 99.4896 132.015 100.527C129.442 101.678 124.359 93.4583 124.359 93.4583C118.002 95.101 114.277 93.2804 111.828 91.6792C111.253 91.2878 119.935 77.9976 119.935 77.9976Z" fill="#FFE7E1"/>
<path d="M135.153 86.9766C135.924 87.9018 136.707 88.8388 137.389 89.8292C138.071 90.8196 138.717 91.8396 139.304 92.8893C140.1 94.247 140.736 95.6917 141.202 97.1948C140.182 94.5854 137.792 90.9975 137.11 90.0071C136.428 89.0167 135.793 87.9907 135.117 87.0003C135.099 86.9766 135.135 86.9529 135.153 86.9766Z" fill="#343536"/>
<path d="M131.529 89.3785C132.846 90.4222 135.604 94.3008 136.665 96.9042C136.713 97.011 136.665 97.0051 136.588 96.9042C135.758 95.6173 132.389 90.6357 131.5 89.3963C131.482 89.3785 131.511 89.3607 131.529 89.3785Z" fill="#343536"/>
<path d="M128.048 90.8966C129.684 92.6125 130.976 94.6255 131.855 96.8271C131.897 96.9338 131.814 96.9161 131.748 96.8271C130.521 94.8285 129.572 93.2688 127.982 90.95C127.959 90.8966 128.012 90.8432 128.048 90.8966Z" fill="#343536"/>
<path d="M89.2214 49.0212C83.8069 41.365 80.5688 44.1998 81.6541 52.5143C82.6741 60.2891 85.3962 69.5525 85.3962 69.5525L99.0363 62.9341C99.0363 62.9341 92.667 53.9257 89.2214 49.0212Z" fill="#D6D6D6"/>
<path d="M92.5122 52.0342C92.692 52.4666 92.8214 52.9183 92.8977 53.3804C92.981 53.844 93.0108 54.3156 92.9867 54.7859C92.8088 54.3512 92.6815 53.8975 92.6071 53.4338C92.5189 52.9728 92.4871 52.5028 92.5122 52.0342Z" fill="white"/>
<path d="M84.4287 56.6893C85.2991 56.3352 86.2358 56.1734 87.1745 56.2148C86.7419 56.3927 86.2901 56.5201 85.8283 56.5944C85.3673 56.6824 84.8974 56.7143 84.4287 56.6893Z" fill="white"/>
<path d="M84.779 44.7812C84.4118 45.648 83.8639 46.4263 83.1719 47.0645C83.5391 46.1978 84.087 45.4194 84.779 44.7812Z" fill="white"/>
<path d="M96.3376 60.2656C96.1576 60.6994 95.9288 61.1112 95.6556 61.4932C95.3896 61.8801 95.0791 62.2344 94.7305 62.5489C95.0977 61.6821 95.6456 60.9038 96.3376 60.2656Z" fill="white"/>
<path d="M86.8487 64.9089C86.4139 64.731 86.0018 64.5021 85.6211 64.2269C85.234 63.9611 84.8797 63.6506 84.5654 63.3018C85.4321 63.669 86.2105 64.2169 86.8487 64.9089Z" fill="white"/>
<path d="M90.9995 51.3286C91.729 52.3309 92.4821 53.3094 93.2294 54.2938C93.0396 53.7957 92.8736 53.2916 92.7312 52.7816H92.7668C92.9151 53.173 93.087 53.5585 93.2294 53.9677L93.4429 54.5607C93.4613 54.6012 93.4771 54.6428 93.4903 54.6853C94.0834 55.4503 94.6764 56.2153 95.222 56.9981C95.8922 57.9352 96.5386 58.884 97.1909 59.8329C97.8433 60.7818 98.5016 61.962 99.2073 62.9168C99.2725 62.9998 98.0212 63.5098 97.8848 63.575C97.7484 63.6403 97.6772 63.5276 97.8077 63.4861C97.9382 63.4446 98.9345 62.8337 98.9464 62.8219C98.294 61.8611 97.5408 60.9775 96.8588 60.0464C96.1768 59.1153 95.5008 58.1842 94.8425 57.2413C93.5081 55.3198 92.2864 53.3272 90.958 51.3998L90.9995 51.3286Z" fill="#343536"/>
<path d="M81.9739 58.0178C82.1814 58.4211 82.4068 58.8185 82.5669 59.2336L82.7923 59.7495C82.478 58.2728 82.1992 56.7843 81.873 55.3076C82.5017 57.6798 83.1362 60.1054 83.7174 62.5131C84.269 64.8142 84.9391 67.1389 85.2594 69.4874C85.6729 69.306 86.1015 69.1611 86.5403 69.0545C86.1 69.3395 85.6258 69.5686 85.1289 69.7365C84.414 67.3483 83.8202 64.9256 83.3497 62.4776C83.2015 61.8133 83.0651 61.1491 82.9227 60.4849C82.7686 60.0816 82.5847 59.6962 82.4009 59.2988C82.217 58.9015 82.051 58.4567 81.8849 58.0356C81.9205 58.0119 81.962 57.9882 81.9739 58.0178Z" fill="#343536"/>
<path d="M85.5978 67.2634C87.4955 66.1959 95.4246 62.092 97.1978 61.3329C97.3223 61.2796 97.3876 61.3329 97.263 61.416C93.4993 63.603 89.619 65.5827 85.6393 67.3464C85.5919 67.3583 85.5444 67.2931 85.5978 67.2634Z" fill="#343536"/>
<path d="M302.907 223.176H122.218L148.342 75.0029H329.031L302.907 223.176Z" fill="#B1B1B1"/>
<path d="M210.185 59.6548H151.052L148.342 75.0028H211.626L210.185 59.6548Z" fill="#B1B1B1"/>
<g opacity="0.1">
<path d="M302.907 223.176H122.218L148.342 75.0029H329.031L302.907 223.176Z" fill="black"/>
<path d="M210.185 59.6548H151.052L148.342 75.0028H211.626L210.185 59.6548Z" fill="black"/>
</g>
<path d="M144.672 65.9173C144.276 64.2202 144.276 62.4549 144.672 60.7578C145.067 62.4549 145.067 64.2202 144.672 65.9173Z" fill="#444444"/>
<path d="M139.417 67.4353C138.813 66.8092 138.293 66.1075 137.869 65.3478C137.424 64.6039 137.076 63.8069 136.831 62.9756C137.437 63.5981 137.957 64.298 138.379 65.0572C138.822 65.8037 139.171 66.6025 139.417 67.4353Z" fill="#444444"/>
<path d="M135.621 71.3796C133.954 70.8729 132.427 69.9903 131.155 68.7998C131.987 69.0415 132.784 69.3882 133.527 69.8317C134.287 70.2582 134.991 70.7782 135.621 71.3796Z" fill="#444444"/>
<path d="M134.292 76.693C132.595 77.0885 130.83 77.0885 129.133 76.693C130.83 76.2976 132.595 76.2976 134.292 76.693Z" fill="#444444"/>
<path d="M135.835 81.9473C135.206 82.548 134.505 83.0679 133.747 83.4951C133.004 83.9386 132.206 84.2854 131.375 84.527C132.001 83.9232 132.703 83.4029 133.463 82.9792C134.205 82.5336 135.003 82.1867 135.835 81.9473Z" fill="#444444"/>
<path d="M139.772 85.7368C139.267 87.4058 138.385 88.9359 137.192 90.2084C137.434 89.376 137.783 88.5785 138.23 87.8362C138.653 87.0738 139.171 86.3683 139.772 85.7368Z" fill="#444444"/>
<path d="M145.086 87.0479C145.293 87.8919 145.393 88.7587 145.383 89.6276C145.396 90.4967 145.296 91.3638 145.086 92.2074C144.874 91.3644 144.774 90.4969 144.79 89.6276C144.78 88.7587 144.879 87.8919 145.086 87.0479Z" fill="#444444"/>
<path d="M150.341 85.5592C150.945 86.1854 151.465 86.8871 151.889 87.6468C152.334 88.3893 152.681 89.1867 152.921 90.0189C151.728 88.7465 150.846 87.2163 150.341 85.5474V85.5592Z" fill="#444444"/>
<path d="M154.13 81.5854C154.962 81.8249 155.76 82.1717 156.502 82.6173C157.262 83.0411 157.963 83.5614 158.59 84.1652C157.757 83.9258 156.96 83.5789 156.217 83.1333C155.458 82.7096 154.756 82.1893 154.13 81.5854Z" fill="#444444"/>
<path d="M155.44 76.272C157.14 75.8768 158.907 75.8768 160.606 76.272C158.907 76.6673 157.14 76.6673 155.44 76.272Z" fill="#444444"/>
<path d="M153.923 71.0177C154.551 70.4175 155.252 69.8994 156.011 69.4758C156.752 69.0259 157.549 68.6769 158.383 68.438C157.11 69.6301 155.58 70.5129 153.911 71.0177H153.923Z" fill="#444444"/>
<path d="M149.979 67.2278C150.223 66.3973 150.569 65.6004 151.01 64.8556C151.434 64.0959 151.954 63.3942 152.558 62.7681C152.319 63.6003 151.972 64.3977 151.526 65.1403C151.103 65.9 150.582 66.6016 149.979 67.2278Z" fill="#444444"/>
<path d="M302.641 223.176H121.566L95.8516 80.3818H276.933L302.641 223.176Z" fill="#B1B1B1"/>
<path d="M158.602 167.672C162.758 167.672 166.128 164.303 166.128 160.146C166.128 155.99 162.758 152.621 158.602 152.621C154.446 152.621 151.076 155.99 151.076 160.146C151.076 164.303 154.446 167.672 158.602 167.672Z" fill="#444444"/>
<path d="M218.096 167.672C222.252 167.672 225.622 164.303 225.622 160.146C225.622 155.99 222.252 152.621 218.096 152.621C213.94 152.621 210.57 155.99 210.57 160.146C210.57 164.303 213.94 167.672 218.096 167.672Z" fill="#444444"/>
<path d="M199.16 168.876L198.745 168.087C198.709 168.016 194.819 160.828 186.997 160.828C179.88 160.828 178.101 167.595 178.054 167.886L177.84 168.746L176.114 168.331L176.322 167.465C176.322 167.382 178.445 159.049 186.997 159.049C195.892 159.049 200.145 166.925 200.322 167.263L200.738 168.046L199.16 168.876Z" fill="#444444"/>
<path d="M290.686 159.571L290.562 158.978C290.947 158.895 291.327 158.806 291.706 158.706L291.854 159.299C291.451 159.399 291.077 159.488 290.686 159.571Z" fill="#343536"/>
<path d="M294.149 158.617L293.959 158.059C294.701 157.804 295.442 157.525 296.159 157.223L296.391 157.769C295.661 158.077 294.908 158.362 294.149 158.617ZM298.567 156.725L298.3 156.203C298.994 155.841 299.688 155.45 300.346 155.017L300.655 155.521C299.979 155.989 299.273 156.387 298.567 156.725ZM302.647 154.216L302.298 153.736C302.938 153.267 303.555 152.775 304.136 152.271L304.527 152.716C303.905 153.255 303.312 153.76 302.641 154.24L302.647 154.216ZM306.265 151.061L305.832 150.652C306.378 150.059 306.894 149.466 307.368 148.873L307.837 149.235C307.344 149.887 306.817 150.498 306.277 151.085L306.265 151.061ZM309.201 147.266L308.697 146.951C309.106 146.289 309.471 145.599 309.788 144.888L310.333 145.131C309.998 145.873 309.618 146.594 309.195 147.289L309.201 147.266ZM311.164 142.865L310.571 142.699C310.787 141.955 310.948 141.196 311.051 140.428L311.644 140.505C311.546 141.311 311.383 142.109 311.158 142.889L311.164 142.865ZM311.822 138.121H311.229V137.949C311.229 137.231 311.187 136.502 311.116 135.784L311.709 135.725C311.787 136.464 311.827 137.206 311.828 137.949L311.822 138.121ZM310.754 133.477C310.595 132.713 310.397 131.957 310.161 131.212L310.754 131.034C310.998 131.805 311.205 132.588 311.347 133.353L310.754 133.477ZM309.349 129.012C309.064 128.312 308.756 127.594 308.376 126.871L308.91 126.604C309.272 127.339 309.604 128.075 309.894 128.786L309.349 129.012ZM307.273 124.783C306.905 124.137 306.502 123.455 306.087 122.755L306.591 122.441C307.024 123.146 307.433 123.834 307.777 124.493L307.273 124.783ZM304.794 120.756C304.361 120.104 303.922 119.446 303.472 118.788L303.964 118.455C304.415 119.114 304.854 119.772 305.286 120.436L304.794 120.756ZM302.126 116.83C301.681 116.178 301.23 115.52 300.791 114.867L301.283 114.535C301.722 115.188 302.167 115.846 302.612 116.492L302.126 116.83ZM299.475 112.881C299.042 112.217 298.621 111.54 298.205 110.864L298.71 110.556C299.125 111.232 299.546 111.896 299.973 112.561L299.475 112.881ZM297.002 108.807C296.598 108.089 296.225 107.377 295.887 106.695L296.42 106.428C296.753 107.104 297.126 107.804 297.518 108.516L297.002 108.807ZM294.896 104.537C294.582 103.795 294.303 103.042 294.042 102.307L294.635 102.117C294.884 102.835 295.163 103.576 295.472 104.305L294.896 104.537ZM293.354 100.012C293.159 99.2407 292.987 98.4519 292.856 97.6395L293.449 97.5446C293.58 98.3037 293.74 99.0746 293.936 99.8337L293.354 100.012ZM292.56 95.2673C292.5 94.5378 292.471 93.8024 292.471 93.0671V92.8714H293.064V93.0611C293.064 93.7787 293.064 94.5022 293.153 95.2139L292.56 95.2673ZM293.153 90.5229L292.56 90.4636C292.56 90.3035 292.589 90.1374 292.607 89.9654C292.678 89.3309 292.767 88.6963 292.874 88.0914L293.467 88.1922C293.366 88.7853 293.277 89.4079 293.206 90.0306C293.23 90.2145 293.23 90.3746 293.182 90.5407L293.153 90.5229ZM293.977 85.909L293.384 85.7489C293.603 84.966 293.858 84.201 294.143 83.4715L294.695 83.685C294.425 84.4193 294.195 85.1677 294.007 85.9268L293.977 85.909ZM323.529 82.4515C323.197 82.4515 322.853 82.4041 322.515 82.3566C322.052 82.2914 321.589 82.2143 321.133 82.1253L321.251 81.5323C321.69 81.6153 322.147 81.6924 322.598 81.7576C322.918 81.7992 323.244 81.8288 323.558 81.8466L323.529 82.4515ZM325.966 82.2677L325.841 81.6746C326.586 81.5209 327.299 81.2444 327.953 80.8562L328.261 81.3603C327.563 81.7925 326.797 82.1052 325.996 82.2854L325.966 82.2677ZM295.685 81.5619L295.157 81.2832C295.535 80.5759 295.953 79.8908 296.409 79.2313L296.895 79.5693C296.461 80.2151 296.067 80.8865 295.715 81.5797L295.685 81.5619ZM318.814 81.5264C318.048 81.2835 317.296 81.0004 316.56 80.6783L316.803 80.1327C317.516 80.4495 318.247 80.7247 318.992 80.957L318.814 81.5264ZM330.082 79.676L329.59 79.3439C330.012 78.7313 330.262 78.0165 330.313 77.2742L330.906 77.3157C330.856 78.1665 330.577 78.988 330.1 79.6938L330.082 79.676ZM314.425 79.5871C313.731 79.1837 313.06 78.7422 312.415 78.2646L312.765 77.7902C313.393 78.2533 314.046 78.681 314.722 79.0711L314.425 79.5871ZM298.354 77.7368L297.915 77.3394C298.452 76.7422 299.024 76.1778 299.629 75.6493L300.02 76.094C299.438 76.6146 298.888 77.1691 298.372 77.7546L298.354 77.7368ZM310.565 76.7345C309.974 76.1904 309.414 75.6143 308.886 75.0088L309.331 74.6174C309.844 75.2055 310.389 75.7658 310.962 76.2957L310.565 76.7345ZM329.868 75.1274C329.529 74.4496 329.059 73.8452 328.486 73.3482L328.878 72.9034C329.508 73.4485 330.026 74.1113 330.402 74.8546L329.868 75.1274ZM301.865 74.6589L301.527 74.1726C302.19 73.7196 302.877 73.3019 303.584 72.9212L303.863 73.4431C303.182 73.8196 302.521 74.2313 301.882 74.6767L301.865 74.6589ZM307.404 73.1169C307.178 72.7967 306.959 72.4705 306.751 72.1325L305.98 72.4349L305.755 71.8893L306.437 71.6165C306.33 71.4386 306.223 71.2607 306.123 71.0828L306.639 70.7922C306.757 70.9998 306.876 71.2073 307 71.3852C307.332 71.2666 307.671 71.154 308.014 71.0472L308.186 71.6403C307.896 71.7292 307.593 71.8241 307.321 71.9249C307.504 72.2155 307.694 72.518 307.914 72.773L307.404 73.1169ZM326.577 72.0969C326.003 71.8109 325.408 71.5691 324.798 71.3734L324.406 71.2488L324.578 70.6558L324.982 70.7863C325.617 70.9888 326.236 71.2406 326.832 71.5394L326.577 72.0969ZM310.458 71.0353L310.333 70.4423C311.098 70.2703 311.893 70.128 312.706 70.0153L312.794 70.6083C312.012 70.7329 311.235 70.8811 310.476 71.0531L310.458 71.0353ZM322.141 70.7151C321.4 70.5846 320.617 70.4838 319.816 70.4127L319.864 69.8196C320.688 69.8908 321.489 69.9916 322.236 70.128L322.141 70.7151ZM315.113 70.3711L315.072 69.7781C315.777 69.7366 316.483 69.7128 317.183 69.7128H317.474V70.3059H317.189C316.519 70.3237 315.819 70.3415 315.131 70.3889L315.113 70.3711ZM305.091 68.9538C304.771 68.2302 304.498 67.4771 304.231 66.712L304.824 66.5282C305.073 67.2754 305.352 68.0108 305.66 68.7165L305.091 68.9538ZM303.59 64.3992C303.412 63.6341 303.264 62.8394 303.151 62.027L303.745 61.9439C303.857 62.7267 304 63.5036 304.172 64.2568L303.59 64.3992ZM302.926 59.6548C302.896 59.121 302.879 58.5754 302.879 58.0298C302.879 57.7748 302.879 57.5139 302.879 57.2589H303.472C303.472 57.5139 303.472 57.7629 303.472 58.018C303.472 58.5517 303.472 59.0914 303.513 59.6073L302.926 59.6548ZM303.632 54.9104L303.039 54.8511C303.122 54.0683 303.235 53.2676 303.371 52.4789L303.964 52.5797C303.804 53.3685 303.691 54.1276 303.614 54.9222L303.632 54.9104ZM304.444 50.2787L303.851 50.1364C304.041 49.3713 304.261 48.6004 304.504 47.8294L305.097 48.0133C304.83 48.7901 304.61 49.5433 304.427 50.2906L304.444 50.2787ZM305.868 45.7893L305.316 45.5758C305.607 44.8345 305.909 44.0932 306.271 43.3756L306.805 43.6366C306.449 44.3482 306.135 45.0717 305.85 45.8249L305.868 45.7893ZM307.908 41.5609L307.392 41.2584C307.795 40.5764 308.228 39.8944 308.679 39.2421L309.165 39.5801C308.702 40.2325 308.281 40.8967 307.89 41.5728L307.908 41.5609ZM310.582 37.7002L310.12 37.3265C310.618 36.7335 311.152 36.1049 311.703 35.5474L312.13 35.9566C311.573 36.5141 311.051 37.1071 310.565 37.712L310.582 37.7002ZM313.809 34.2842L313.411 33.8454C314.004 33.3175 314.597 32.7957 315.232 32.2916L315.6 32.7601C314.965 33.2642 314.36 33.7801 313.791 34.2961L313.809 34.2842ZM317.491 31.3545L317.153 30.8623C317.8 30.4175 318.476 29.9787 319.164 29.5635L319.466 30.0676C318.778 30.4887 318.138 30.9216 317.474 31.3664L317.491 31.3545ZM321.518 28.9053L321.239 28.3834C321.939 28.0098 322.663 27.6539 323.386 27.3218L323.635 27.8615C322.882 28.1995 322.188 28.5554 321.5 28.9171L321.518 28.9053ZM325.806 26.9363L325.586 26.3789C326.334 26.0883 327.087 25.7858 327.834 25.5664L328.024 26.1595C327.271 26.3848 326.524 26.6576 325.788 26.9482L325.806 26.9363Z" fill="#343536"/>
<path d="M330.378 25.4357L330.229 24.8426C330.965 24.6529 331.416 24.5698 331.416 24.5698L331.522 25.1629C331.522 25.1629 331.095 25.2518 330.378 25.4357Z" fill="#343536"/>
<path d="M340.863 21.6046C339.351 16.9195 329.222 18.6038 331.197 24.73C333.172 30.8561 342.376 26.2956 340.863 21.6046Z" fill="#343536"/>
<path d="M325.687 19.7306C325.764 17.6727 328.623 16.0893 332.667 16.8187C336.712 17.5482 340.513 20.2762 340.513 20.2762C340.513 20.2762 336.522 22.6958 332.436 23.1406C328.35 23.5854 325.61 21.7825 325.687 19.7306Z" fill="#EBEBEB"/>
<path d="M340.513 20.2643C338.414 20.2643 336.32 20.205 334.227 20.1398C332.133 20.0746 330.034 19.9678 327.94 19.8018C330.04 19.8018 332.139 19.8551 334.233 19.9204C336.326 19.9856 338.425 20.0924 340.513 20.2643Z" fill="#343536"/>
<path d="M329.75 17.8979C330.942 18.4681 332.066 19.1703 333.101 19.9914C332.504 19.7115 331.926 19.3946 331.369 19.0425C330.807 18.6929 330.267 18.3107 329.75 17.8979Z" fill="#343536"/>
<path d="M335.248 20.0688C334.175 20.9383 333.012 21.6899 331.778 22.3106C332.857 21.44 334.026 20.6884 335.265 20.0688H335.248Z" fill="#343536"/>
<path d="M335.858 18.9121C336.457 19.1995 336.981 19.6217 337.388 20.1456C337.089 20.0044 336.808 19.8272 336.552 19.6178C336.295 19.4098 336.062 19.173 335.858 18.9121Z" fill="#343536"/>
<path d="M329.542 31.9179C330.805 33.5428 334.049 33.1514 336.902 30.198C339.754 27.2447 341.267 22.8027 341.267 22.8027C341.267 22.8027 336.594 23.1586 333.029 25.1749C329.465 27.1913 328.273 30.287 329.542 31.9179Z" fill="#EBEBEB"/>
<path d="M341.266 22.8027C339.558 23.9888 337.898 25.3054 336.232 26.5804C334.565 27.8555 332.934 29.1721 331.339 30.5301C333.047 29.344 334.707 28.0334 336.368 26.7584C338.028 25.4833 339.647 24.1667 341.266 22.8027Z" fill="#343536"/>
<path d="M333.9 30.9984C334.217 30.4223 334.501 29.8283 334.748 29.2192C335.001 28.6085 335.215 27.9826 335.389 27.3452C335.071 27.9208 334.788 28.5149 334.541 29.1244C334.291 29.736 334.077 30.3617 333.9 30.9984Z" fill="#343536"/>
<path d="M337.115 26.0407C335.728 25.9665 334.336 26.04 332.964 26.2601C333.655 26.3016 334.348 26.3016 335.04 26.2601C335.735 26.2262 336.428 26.1529 337.115 26.0407Z" fill="#343536"/>
<path d="M338.26 26.6278C338.418 26.3349 338.542 26.0244 338.627 25.7027C338.715 25.3833 338.767 25.055 338.782 24.7241C338.466 25.3112 338.288 25.962 338.26 26.6278Z" fill="#343536"/>
<path d="M340.864 21.6046C340.529 21.7134 340.169 21.7203 339.83 21.6245C339.491 21.5287 339.189 21.3345 338.96 21.0665C338.732 20.7985 338.588 20.4687 338.547 20.1189C338.506 19.7692 338.57 19.4152 338.731 19.1017C338.891 18.7882 339.141 18.5295 339.449 18.3581C339.756 18.1868 340.108 18.1106 340.459 18.1392C340.81 18.1678 341.144 18.2999 341.42 18.5188C341.696 18.7377 341.901 19.0335 342.008 19.3688C342.152 19.8171 342.113 20.3041 341.898 20.7232C341.683 21.1423 341.312 21.4592 340.864 21.6046Z" fill="#455A64"/>
<path d="M341.955 24.9909C341.62 25.0992 341.261 25.1059 340.922 25.01C340.584 24.9141 340.281 24.72 340.053 24.4523C339.825 24.1845 339.681 23.8551 339.64 23.5057C339.599 23.1562 339.663 22.8025 339.823 22.4891C339.983 22.1758 340.232 21.9169 340.539 21.7452C340.846 21.5736 341.197 21.4968 341.548 21.5246C341.899 21.5525 342.233 21.6836 342.509 21.9016C342.785 22.1196 342.991 22.4145 343.099 22.7492C343.172 22.9715 343.199 23.2059 343.181 23.4389C343.162 23.672 343.098 23.899 342.992 24.1072C342.885 24.3154 342.739 24.5006 342.561 24.6522C342.383 24.8039 342.177 24.919 341.955 24.9909Z" fill="#455A64"/>
<path d="M147.524 23.4785C147.24 26.2025 146.205 28.7939 144.533 30.9636C142.862 33.1333 140.621 34.7959 138.06 35.7659C135.498 36.7359 132.718 36.9751 130.029 36.4568C127.34 35.9386 124.847 34.6832 122.83 32.8309L115.435 33.9162L119.135 27.5231C118.289 25.4429 117.928 23.1973 118.079 20.9566C118.231 18.716 118.891 16.5394 120.01 14.5921C121.129 12.6449 122.676 10.9782 124.536 9.71861C126.395 8.45905 128.517 7.63978 130.74 7.32303C132.963 7.00628 135.23 7.20039 137.367 7.89059C139.504 8.58079 141.455 9.74895 143.073 11.3063C144.691 12.8637 145.933 14.7693 146.704 16.8785C147.476 18.9876 147.756 21.2448 147.524 23.4785Z" fill="white"/>
<path d="M147.524 23.4787C147.246 26.2013 146.22 28.7937 144.559 30.9689C143.748 32.069 142.769 33.0355 141.659 33.8333C140.573 34.661 139.375 35.33 138.101 35.82C136.826 36.3222 135.486 36.6416 134.121 36.7689C133.439 36.8301 132.753 36.844 132.069 36.8104C131.383 36.7928 130.699 36.7214 130.023 36.5969C127.298 36.0954 124.766 34.8448 122.711 32.9853L122.883 33.0386L115.5 34.1714L114.96 34.2544L115.233 33.7799L118.91 27.375V27.63C118.042 25.5114 117.673 23.2217 117.832 20.9378C117.99 18.6539 118.671 16.437 119.823 14.4585C120.973 12.4861 122.555 10.7993 124.449 9.52431C126.34 8.2662 128.491 7.45258 130.742 7.14446C132.992 6.83633 135.283 7.0417 137.442 7.74517C139.579 8.47211 141.526 9.6676 143.142 11.2441C144.753 12.8168 145.985 14.7358 146.745 16.8556C147.504 18.9755 147.771 21.2405 147.524 23.4787ZM147.524 23.4787C147.764 21.2515 147.488 18.999 146.719 16.8952C145.95 14.7913 144.708 12.8923 143.088 11.3449C141.468 9.79745 139.515 8.64292 137.378 7.97044C135.241 7.29796 132.979 7.12552 130.765 7.46643C128.573 7.79085 126.485 8.61464 124.662 9.8742C122.855 11.1437 121.345 12.7908 120.238 14.7016C119.148 16.6166 118.505 18.7536 118.358 20.9523C118.214 23.1659 118.57 25.3836 119.402 27.4403L119.455 27.5707L119.384 27.6953L115.66 34.0765L115.399 33.6851L122.8 32.6472H122.901L122.972 32.7125C124.95 34.5539 127.402 35.8085 130.053 36.336C130.714 36.4706 131.384 36.5519 132.058 36.5791C132.731 36.6266 133.407 36.6266 134.08 36.5791C135.43 36.4703 136.759 36.177 138.029 35.7073C139.303 35.2437 140.502 34.5964 141.588 33.7859C142.693 32.9945 143.673 32.0408 144.494 30.957C146.176 28.7924 147.225 26.2037 147.524 23.4787Z" fill="#343536"/>
<path d="M125.599 28.834C125.588 28.6376 125.617 28.441 125.685 28.2564C125.752 28.0718 125.857 27.903 125.993 27.7607C126.129 27.6183 126.292 27.5054 126.473 27.4288C126.654 27.3523 126.849 27.3138 127.046 27.3158C127.449 27.3158 127.835 27.4757 128.12 27.7604C128.404 28.0451 128.564 28.4313 128.564 28.834C128.564 29.2366 128.404 29.6228 128.12 29.9075C127.835 30.1922 127.449 30.3522 127.046 30.3522C126.849 30.3541 126.654 30.3156 126.473 30.2391C126.292 30.1626 126.129 30.0496 125.993 29.9072C125.857 29.7649 125.752 29.5961 125.685 29.4115C125.617 29.2269 125.588 29.0303 125.599 28.834ZM126.192 25.329L125.848 13.563H128.22L127.876 25.329H126.192Z" fill="#D6D6D6"/>
<path d="M131.24 28.834C131.228 28.6381 131.257 28.442 131.325 28.2578C131.392 28.0736 131.497 27.9051 131.632 27.7629C131.767 27.6206 131.929 27.5075 132.11 27.4306C132.29 27.3537 132.485 27.3146 132.681 27.3158C133.083 27.3158 133.47 27.4757 133.754 27.7604C134.039 28.0451 134.199 28.4313 134.199 28.834C134.199 29.2366 134.039 29.6228 133.754 29.9075C133.47 30.1922 133.083 30.3522 132.681 30.3522C132.485 30.3533 132.29 30.3142 132.11 30.2373C131.929 30.1604 131.767 30.0473 131.632 29.9051C131.497 29.7628 131.392 29.5943 131.325 29.4101C131.257 29.2259 131.228 29.0298 131.24 28.834ZM131.833 25.3291L131.507 13.563H133.879L133.535 25.3291H131.833Z" fill="#D6D6D6"/>
<path d="M136.874 28.834C136.862 28.6376 136.891 28.441 136.959 28.2564C137.027 28.0718 137.132 27.903 137.267 27.7607C137.403 27.6183 137.567 27.5054 137.748 27.4288C137.929 27.3523 138.124 27.3138 138.321 27.3158C138.723 27.3158 139.109 27.4757 139.394 27.7604C139.679 28.0451 139.839 28.4313 139.839 28.834C139.839 29.2366 139.679 29.6228 139.394 29.9075C139.109 30.1922 138.723 30.3522 138.321 30.3522C138.124 30.3541 137.929 30.3156 137.748 30.2391C137.567 30.1626 137.403 30.0496 137.267 29.9072C137.132 29.7649 137.027 29.5961 136.959 29.4115C136.891 29.2269 136.862 29.0303 136.874 28.834ZM137.467 25.329L137.123 13.563H139.495L139.157 25.329H137.467Z" fill="#D6D6D6"/>
</svg>
